<?xml version="1.0" encoding="utf-8"?>
<!-- Generator: Adobe Illustrator 21.0.0, SVG Export Plug-In . SVG Version: 6.00 Build 0)  -->
<svg version="1.1" id="Layer_1" xmlns="http://www.w3.org/2000/svg" xmlns:xlink="http://www.w3.org/1999/xlink" x="0px" y="0px"
	 viewBox="0 0 1920 1080" style="enable-background:new 0 0 1920 1080;" xml:space="preserve">
<style type="text/css">
	.st0{fill:#E4E7E6;}
	.st1{fill:#E82E22;}
	.st2{fill:#A3ABCD;}
	.st3{fill:#E3E6EB;}
	.st4{fill:#675542;}
	.st5{fill:#D4F0FF;}
	.st6{clip-path:url(#SVGID_2_);fill:#286375;}
	.st7{clip-path:url(#SVGID_2_);fill:#1D515F;}
	.st8{clip-path:url(#SVGID_2_);}
	.st9{fill:#1D515F;}
	.st10{clip-path:url(#SVGID_2_);fill:#0A1A34;}
	.st11{fill:#FFFFFF;}
	.st12{fill:#99DBFD;}
	.st13{fill:#743B34;}
	.st14{fill:#3F72B3;}
	.st15{fill:#DCEEFA;}
	.st16{fill:#FDB23F;}
	.st17{fill:#AD734D;}
	.st18{fill:#70C48E;}
	.st19{fill:#6FBACA;}
	.st20{clip-path:url(#SVGID_4_);fill:#E3E1E0;}
	.st21{clip-path:url(#SVGID_4_);fill:#E3B06F;}
	.st22{clip-path:url(#SVGID_4_);}
	.st23{fill:#CDCCCF;}
	.st24{fill:#ACAEAF;}
	.st25{fill:#EAEBE7;}
	.st26{fill:#835C23;}
	.st27{fill:#E2AA4D;}
	.st28{fill:#D3973F;}
	.st29{fill:#D0973D;}
	.st30{clip-path:url(#SVGID_4_);fill:#D3973F;}
	.st31{clip-path:url(#SVGID_4_);fill:#FFFFFF;}
	.st32{clip-path:url(#SVGID_6_);fill:#B1AEAD;}
	.st33{clip-path:url(#SVGID_6_);}
	.st34{fill:#8C8C8C;}
	.st35{opacity:0.26;fill:#BFBFBF;}
	.st36{clip-path:url(#SVGID_6_);fill:#FFFFFF;}
	.st37{clip-path:url(#SVGID_6_);fill:#8C8C8C;}
	.st38{opacity:0.26;fill:#8C8C8C;}
	.st39{clip-path:url(#SVGID_6_);fill:none;}
	.st40{fill:#CA8F3F;}
	.st41{fill:#894B15;}
	.st42{fill:#FFD73E;}
	.st43{clip-path:url(#SVGID_8_);fill:#D0D1C2;}
	.st44{clip-path:url(#SVGID_8_);}
	.st45{fill:#569759;}
	.st46{clip-path:url(#SVGID_8_);fill:#569759;}
	.st47{fill:#CC191D;}
	.st48{fill:#AC151C;}
	.st49{fill:#080206;}
	.st50{fill:#B8291B;}
	.st51{fill:#DF342D;}
	.st52{fill:#E1484D;}
	.st53{opacity:0.38;fill:#FFFFFF;}
	.st54{fill:#DA95A5;}
	.st55{fill:#6B95A5;}
	.st56{fill:none;}
	.st57{clip-path:url(#SVGID_10_);fill:#1A2650;}
	.st58{clip-path:url(#SVGID_10_);}
	.st59{fill:#4D557C;}
	.st60{fill:#282D4B;}
	.st61{fill:#9EB9D4;}
	.st62{clip-path:url(#SVGID_10_);fill:#4D557C;}
	.st63{clip-path:url(#SVGID_10_);fill:#282D4B;}
	.st64{clip-path:url(#SVGID_10_);fill:#FFFFFF;}
	.st65{fill:#1C1B3B;}
	.st66{clip-path:url(#SVGID_10_);fill:#9EB9D4;}
	.st67{fill:#E84A24;}
	.st68{clip-path:url(#SVGID_12_);fill:#E4E7E6;}
	.st69{clip-path:url(#SVGID_12_);}
	.st70{fill:#2A3A3A;}
	.st71{fill:#A3AAA3;}
	.st72{fill:#BD000B;}
	.st73{fill:#98060B;}
	.st74{clip-path:url(#SVGID_12_);fill:#FFFFFF;}
	.st75{fill:#8E0A15;}
	.st76{fill:#DC4558;}
	.st77{fill:#D57F06;}
</style>
<g>
	<defs>
		<rect id="SVGID_9_" width="1920" height="1080"/>
	</defs>
	<clipPath id="SVGID_2_">
		<use xlink:href="#SVGID_9_"  style="overflow:visible;"/>
	</clipPath>
	<rect style="clip-path:url(#SVGID_2_);fill:#1A2650;" width="1920" height="1080"/>
	<g class="st8">
		<polygon class="st59" points="539.6,852.2 756.1,696.6 838.8,608.4 918.5,525.8 933.7,546.1 1028,458 1115.1,580.5 1160.3,596.7 
			1329.6,749.8 1479.2,847.2 1154.5,895.9 		"/>
		<polygon class="st60" points="854.6,715.2 808.3,774 678.2,810.5 794.1,757.9 		"/>
		<polygon class="st61" points="1028,458 963.7,579.9 998.7,604.2 943.6,693 967.8,705.1 951.6,736 1016.2,773.7 856.5,874.7 
			1294.8,936.6 1479.2,847.2 1329.6,749.8 1160.3,596.7 1115.1,580.5 		"/>
		<polygon class="st60" points="918.5,525.8 868.1,598.7 933.7,546.1 		"/>
		<polygon class="st60" points="963.7,579.9 866.3,636.9 998.7,604.2 		"/>
		<polygon class="st60" points="943.6,693 901.8,721.2 967.8,705.1 		"/>
		<polygon class="st60" points="951.6,736 861.8,780.7 1016.2,773.7 		"/>
		<polygon class="st11" points="1115.1,580.5 1060.5,616.8 1028,757.5 1069.6,642 1160.3,596.7 		"/>
		<polygon class="st11" points="1329.6,749.8 1240.8,793.3 1204,838.1 1261.5,799.7 1389.4,788.5 		"/>
	</g>
	<path style="clip-path:url(#SVGID_2_);fill:#4D557C;" d="M-66.9,778.6c0,0,501,3.5,890.6,62.6c389.6,59.1,640.9,94.5,640.9,94.5
		s582.1,86.9,829.5,83.8c247.4-3.1-351.3,198.5-351.3,198.5l-1701.2-33.6l-342.2-79.4L-66.9,778.6z"/>
	<path style="clip-path:url(#SVGID_2_);fill:#282D4B;" d="M211.9,1111.1c0,0,128.7,49.2,511.4-112.8S2052.9,766,2052.9,766
		l-67.2,352.2L260,1163.1L211.9,1111.1z"/>
	<path style="clip-path:url(#SVGID_2_);fill:#FFFFFF;" d="M1107.4,154.1c0,30.2-24.5,54.7-54.7,54.7c-30.2,0-54.7-24.5-54.7-54.7
		c0-29.2,22.9-53.1,51.7-54.7c-16.6,6-28.5,21.9-28.5,40.6c0,23.8,19.3,43.2,43.2,43.2c21.6,0,39.5-15.8,42.7-36.5
		C1107.2,149.1,1107.4,151.6,1107.4,154.1z"/>
	<g class="st8">
		<polygon class="st65" points="564.2,824.4 553.4,824.4 558.8,587.5 564.2,587.5 		"/>
		<path class="st65" d="M562.1,611.2c0,0-3.9,19.1-21,25.4c0,0,3-10.5,2.7-12.8c0,0,7.5-5.3,12.5-15.9c0,0-7.7,9.5-12.3,11.7
			c0,0,2.3-3.3,2.3-6.9l5.3-6l-3.8,2.9l14.3-55.5c0,0,15.3,53.3,15.3,53c0-0.3-12.8-15.3-16.1-12.3c-3.5,3.2,9,17.6,17,18.3
			c0,0,2.1,7.5,3.3,12.9c0,0-4.8,0.9-7.7-2c0,0,3,6.6,9.9,10.7c0,0,1.4,9.5,3.6,13.1c0,0-23-7.4-24.2-21.6
			C562,612.1,562.1,611.2,562.1,611.2z"/>
		<path class="st65" d="M556.7,772.2c0,0-14.6,27.2-50.1,36v-3.2c0,0,17-5.3,21.9-10.2c0,0-17,5.7-30.9,6.5c0,0,3.2-5.6,3.6-9.8
			c0,0,36.6-8.1,51.9-30.9c0,0-30.9,24-50.6,24.8c0,0,1.4-4.7,1.5-7.8c0,0,18.2-0.2,39.5-20c0,0-10.4,8.4-22.5,12.2
			c0,0,24.8-13.2,35-31.8l0.9-17.9c0,0-21.6,27.9-42.9,25.7l0.2-2.7c0,0,15.8-2.3,20.3-8.9c0,0-10.7,5.7-20.3,5.1c0,0,1.8-5.7,2-7.8
			c0,0,23.3-7.4,31.5-23.9l-15.3,10.8l2.7-6c0,0,19.8-13.8,23.3-27v-12.3c0,0-10.1,25.8-34.2,27.8c0,0,0.9-1.1,1.8-6
			c0,0,19.5-4.8,24.5-16.8l-0.3-2.7c0,0-11.1,14-23.1,14l1.2-5.7c0,0,10.5-1.1,14.7-10.1c0,0-7.1,4.5-12.8,5.3l1.1-4.7
			c0,0,14-3,14.6-10.4c0.6-7.4-11.9,6.2-11.9,6.2s2.3-1.1,1.7-9c0,0,17.4-7.8,23.4-20.6c0-0.2,0.2-0.3,0.2-0.5h5.7
			c0,0,8.1,16.8,24.6,19.1c0,0,1.2,6.6,3,9.6c0,0-7.5-0.8-14-4.8c0,0,3.8,6.5,13.1,9.2c0,0-2.9,1.1-5.3,0.2c0,0,4.1,5.9,10.5,8v2
			c0,0-27.5-12.5-34.7-23.4c0,0-1.5,6.5,2,13.1c3.5,6.5,20.1,22.7,34.8,20.9l1.1,3.2c0,0-16.1-0.6-21.9-5.3c0,0,9.5,9.2,22.8,9.3
			l1.4,7.4c0,0-9.5,1.5-15.2-2.3c0,0,5.6,10.8,15.2,12.8c0,0,1.2,2.3-1.2,1.8c-2.4-0.6-26.9-9.5-39.5-28.8c0,0,11.7,29.4,46.5,39.3
			c0,0,0.2,1.7,1.4,3.2c0,0-9.5-1.8-8.3,0.6c1.1,2.3,10.7,5.7,10.7,5.7s-1.1,2.7,0,6.3c0,0-27.9-6.8-38.4-20c0,0,9.5,16.5,35.7,21.9
			c0,0-0.8,3.8,1.1,6.8c0,0-37.1-3-50.4-31.4c0,0-2.3,31.5,38.4,35.4c0,0-10.7,3.3-22.7-2.1c0,0,11.1,11.9,40.4,10.2
			c0,0,0.3,4.2,3.2,5.4c0,0-11.6,3.6-18.5,2.7c0,0,7.8,5.3,20,7.4v2.9c0,0-26,0-35-5.1c0,0,12,13.4,30.2,13.4c0,0-2,4.4-6.6,3.9
			c-4.7-0.3-31.7-7.2-43.7-27c0,0,7.8,21.2,25.2,26.6c0,0-22.4-7.4-28.2-16.2c0,0,13.1,20.3,38.3,25.8l-0.2,3.2
			c0,0-25.2-5.6-36.3-20.7c0,0,8.9,11.9,16.1,15.3c0,0-17.4-2-21.2-15C555.2,776.8,556.7,772.2,556.7,772.2z"/>
		<g>
			<g>
				<path class="st65" d="M588.4,797.2c0.5,0.2,1.1,0.3,1.5,0.6C589.6,797.7,589.1,797.5,588.4,797.2z"/>
				<path class="st65" d="M589.9,797.8c0.3,0.2,0.5,0.2,0.5,0.2C590.2,797.8,590,797.8,589.9,797.8z"/>
				<path class="st65" d="M618.7,773.4c-2.9-1.2-3.2-5.4-3.2-5.4c-29.1,1.7-40.4-10.2-40.4-10.2c12,5.4,22.7,2.1,22.7,2.1
					c-25.1-2.4-33.9-15.3-36.9-24.9l0,0c-3.3-5.1-4.4-14.7-4.4-14.7l-0.9,17.9c-10.2,18.6-35,31.8-35,31.8
					c12.2-3.8,22.5-12.2,22.5-12.2c-21.3,19.8-39.3,20-39.3,20c-0.2,3.2-1.5,7.8-1.5,7.8c19.7-0.6,50.6-24.8,50.6-24.8
					c-15.3,22.8-51.9,30.9-51.9,30.9c-0.5,4.2-3.6,9.8-3.6,9.8c14-0.6,30.9-6.5,30.9-6.5c-4.8,4.8-21.9,10.2-21.9,10.2v3.2
					c35.6-8.9,50.1-36,50.1-36s-1.5,4.7,2.3,17.9c3.6,13.2,21.2,15,21.2,15c-5.7-2.7-12.3-10.5-15-13.8
					c11.7,14.1,35.1,19.2,35.1,19.2l0.2-3.2c-25.2-5.6-38.3-25.8-38.3-25.8c4.8,7.4,20.7,13.5,26.3,15.6
					c-16.1-6.2-23.3-25.8-23.3-25.8c12,20,39,26.7,43.7,27c4.7,0.3,6.6-3.9,6.6-3.9c-18.2,0-30.2-13.4-30.2-13.4
					c9,5.1,35,5.1,35,5.1v-2.9c-12.2-2.1-20-7.4-20-7.4C607.1,777,618.7,773.4,618.7,773.4z M564.7,790.8c-0.6-0.6-0.9-1.1-0.9-1.1
					C564.1,790.2,564.4,790.5,564.7,790.8z"/>
			</g>
		</g>
		<path class="st65" d="M588.4,797.2c0.5,0.2,1.1,0.3,1.5,0.6C589.6,797.7,589.1,797.5,588.4,797.2z"/>
		<path class="st65" d="M589.9,797.8c0.3,0.2,0.5,0.2,0.5,0.2C590.2,797.8,590,797.8,589.9,797.8z"/>
		<path class="st65" d="M564.7,790.8c-0.6-0.6-0.9-1.1-0.9-1.1C564.1,790.2,564.4,790.5,564.7,790.8z"/>
		<path class="st65" d="M588.4,797.2c0.5,0.2,1.1,0.3,1.5,0.6C589.6,797.7,589.1,797.5,588.4,797.2z"/>
		<path class="st65" d="M589.9,797.8c0.3,0.2,0.5,0.2,0.5,0.2C590.2,797.8,590,797.8,589.9,797.8z"/>
		<path class="st65" d="M588.4,797.2c0.5,0.2,1.1,0.3,1.5,0.6C589.6,797.7,589.1,797.5,588.4,797.2z"/>
		<path class="st65" d="M589.9,797.8c0.3,0.2,0.5,0.2,0.5,0.2C590.2,797.8,590,797.8,589.9,797.8z"/>
		<path class="st65" d="M564.7,790.8c-0.6-0.6-0.9-1.1-0.9-1.1C564.1,790.2,564.4,790.5,564.7,790.8z"/>
		<path class="st65" d="M563.6,594.7c5,1.7,13.8,12.2,13.8,12.5c0,0.2-0.9-2.9-2.3-7.5C569.3,595.6,563.6,594.7,563.6,594.7
			L563.6,594.7z"/>
		<path class="st65" d="M556.9,606.7c-4.8,6-9.6,8.1-11,8.6c-0.6,2.4-2,4.4-2,4.4c4.7-2.3,12.3-11.7,12.3-11.7
			c-5,10.7-12.5,15.9-12.5,15.9c0.2,0.6,0,1.8-0.3,3.3C554.2,621,556.9,606.7,556.9,606.7z"/>
		<path class="st65" d="M563.2,626.4c0.2,2.6,1.1,4.8,2.4,6.8c-2.7-11.9-1.7-32.7-3.2-24c-1.8,11.3-17.7,22.8-17.7,22.8v-6.5
			l-1.2,1.2c-0.8,3.9-2.4,9.9-2.4,9.9c17.1-6.3,21-25.4,21-25.4S562,612.1,563.2,626.4z"/>
		<path class="st65" d="M587.3,648c-1.5-2.6-2.7-8.1-3.2-11c-11.3-4.5-12.9-14.9-12.9-14.9c2.3,2.6,2.7,2.4,2.9,2.4
			c0-0.2,0-0.2,0-0.2c2.9,2.7,7.7,2,7.7,2v-0.2c-7.7,1.2-18.3-16.2-18.3-16.2l-0.5,2.4l1.4,18.5C569,642.1,587.3,648,587.3,648z"/>
		<path class="st65" d="M575.9,657.3c0.2,0.2,6.2,8.3,14.6,11.7c1.1,0.2,1.7,0.3,1.7,0.3c-1.8-3-3-9.6-3-9.6
			c-5.1-0.8-9.5-2.9-12.9-5.4H575l3.6,3.6L575.9,657.3z"/>
		<path class="st65" d="M596.5,681.7c-6.5-2.1-10.5-8-10.5-8c2.3,0.8,5.3-0.2,5.3-0.2c-4.1-1.2-7.1-3-9.2-4.8
			c-8.3-4.5-11.6-11-11.6-11c0.6,2.3,1.7,4.4,1.7,4.4c-2.7-1.7-4.8-9.2-4.8-9.2c0.5,6.6,4.8,11.4,4.8,11.4c-4.7-3-6.5-9.6-6.5-9.6
			c1.2,5.6,3,10.1,5,13.8c10.8,8,25.8,14.9,25.8,14.9V681.7z"/>
		<path class="st65" d="M551.9,680.5c0,0-6.5,11-14.1,14.1c-7.8,3.2-11.3,2.7-10.7,1.2c0.6-1.5,8.1,0.5,14.9-6
			C548.5,683.5,552.1,678.9,551.9,680.5z"/>
		<g>
			<path class="st65" d="M543.8,662.4l5.7-6.3l-8.3,2.4c-3.5,2.1-6,3.2-6,3.2c0.3,5.4-0.5,7.7-1.1,8.6
				C535.9,668.4,541,663.1,543.8,662.4z"/>
			<path class="st65" d="M534.1,670c-0.3,0.3-0.6,0.6-0.6,0.6S533.8,670.5,534.1,670z"/>
		</g>
		<path class="st65" d="M543.8,682c5.3-7.2,5.7-15.2,5.7-15.2c-8.1,20-21.8,17.3-21.8,17.3l-1.2,5.7
			C533.2,690,539.5,685.8,543.8,682z"/>
		<path class="st65" d="M560.6,642c0,0-5.9,6.8-3.6,6.5c2.3-0.2,7.1-2.9,6.5-4.7C562.7,641.8,562,640.6,560.6,642z"/>
		<path class="st65" d="M570.4,690.7c2.1,5.1,5.7,12,5.7,12c-7.2-3.9-11-12.9-11-12.9c2.1,5.9,6,12,9.3,16.5
			c11.9,9.6,24.6,14.3,26.4,14.6c1.8,0.5,1.7-0.9,1.4-1.5c-15.2-3.6-22.2-17.9-22.2-17.9c6.9,4.7,20.3,2.4,20.3,2.4
			C577.9,703.5,570.4,690.7,570.4,690.7z"/>
		<path class="st65" d="M514,739.5c0.3,0,0.6,0,0.9,0c26.4-3.9,37.1-31.1,37.1-31.1c-2.4,4.5-7.5,7.4-11.9,9.2
			c-10.1,9.6-24,14.1-24,14.1C515.8,733.9,514,739.5,514,739.5z"/>
		<path class="st65" d="M558.8,717.1c1.5,6.6,4.5,12.9,7.7,18c16.2,18.5,43.4,20.6,43.4,20.6c-1.8-3-1.1-6.8-1.1-6.8
			c-26.3-5.4-35.7-21.9-35.7-21.9c10.5,13.2,38.4,20,38.4,20c-0.2-0.3-0.2-0.6-0.3-0.9c-20-5.9-34.1-18.9-34.1-18.9
			c5.3,3.5,19.2,0,19.2,0c-28.4-4.7-35.1-14.9-35.1-14.9c4.4,16.4,17.3,25.8,17.3,25.8C567.5,732.3,558.8,717.1,558.8,717.1z"/>
		<path class="st65" d="M615.5,768c-19.2,1.1-30.5-3.6-36-7.1l0,0c0,0,9.3,10.4,23.9,15.3c6.8-0.2,15.3-2.9,15.3-2.9
			C615.8,772.2,615.5,768,615.5,768z"/>
		<g>
			<path class="st65" d="M531.8,786.1c11.9-6.3,20.7-24.8,20.7-24.8l0,0c-6.2,8.9-15.6,15.6-24.8,20.3l0,0l0,0
				c-13.7,7.2-26.7,10.1-26.7,10.1c-0.5,4.2-3.6,9.8-3.6,9.8c5-0.3,10.4-1.1,15.2-2.1c17.9-5.7,30.6-18.8,34.2-22.8
				C542.3,781,531.8,786.1,531.8,786.1z"/>
			<path class="st65" d="M546.8,776.4c0.5-0.5,0.8-0.9,1.1-1.2C547.9,775.2,547.6,775.6,546.8,776.4z"/>
		</g>
		<path class="st65" d="M561.1,751.2c0,0-0.2,20.3,24.9,27.9c0,0-12.9-5.1-16.1-12.2c0,0,5.4,5.4,11.3,6.3
			C581,773.2,566.3,764.2,561.1,751.2z"/>
		<path class="st65" d="M565.4,788.8c0,0,16.8,12.5,33.6,13.8c0,0-24.6,1.2-35.3-9.9c0,0,3,2.6,7.4,2.6
			C571.3,795.1,568.3,794.4,565.4,788.8z"/>
		<path class="st65" d="M556.6,742.5c0,0-5.6,16.4-20.7,24.3c0,0,11.9-3.6,16.5-10.5c0,0-1.8,3.3-3.3,5.1
			C549.2,761.4,555.8,756.9,556.6,742.5z"/>
		<path class="st65" d="M597.8,759.9c-16.7-1.7-26.1-8-31.5-14.7c-2.7-1.4-5.3-3-7.5-4.8C558.5,740.1,572.6,763.5,597.8,759.9z"/>
		<path class="st65" d="M556.9,693.6c0,0,7.5,23.1,26.4,25.8c0,0-11.6-4.2-17.7-17l1.8,1.7l-6.2-11.9l-0.6,6L556.9,693.6z"/>
	</g>
	<g class="st8">
		<polygon class="st65" points="452.4,818.2 441.6,818.2 447,581.3 452.4,581.3 		"/>
		<path class="st65" d="M450.3,605c0,0-3.9,19.1-21,25.4c0,0,3-10.5,2.7-12.8c0,0,7.5-5.3,12.5-15.9c0,0-7.7,9.5-12.3,11.7
			c0,0,2.3-3.3,2.3-6.9l5.3-6l-3.8,2.9l14.3-55.5c0,0,15.3,53.3,15.3,53s-12.8-15.3-16.1-12.3c-3.5,3.2,9,17.6,17,18.3
			c0,0,2.1,7.5,3.3,12.9c0,0-4.8,0.9-7.7-2c0,0,3,6.6,9.9,10.7c0,0,1.4,9.5,3.6,13.1c0,0-23-7.4-24.2-21.6
			C450.2,605.9,450.3,605,450.3,605z"/>
		<path class="st65" d="M444.9,766c0,0-14.6,27.2-50.1,36v-3.2c0,0,17-5.3,21.9-10.2c0,0-17,5.7-30.9,6.5c0,0,3.2-5.6,3.6-9.8
			c0,0,36.6-8.1,51.9-30.9c0,0-30.9,24-50.6,24.8c0,0,1.4-4.7,1.5-7.8c0,0,18.2-0.2,39.5-20c0,0-10.4,8.4-22.5,12.2
			c0,0,24.8-13.2,35-31.8l0.9-17.9c0,0-21.6,27.9-42.9,25.7l0.2-2.7c0,0,15.8-2.3,20.3-8.9c0,0-10.7,5.7-20.3,5.1c0,0,1.8-5.7,2-7.8
			c0,0,23.3-7.4,31.5-23.9l-15.3,10.8l2.7-6c0,0,19.8-13.8,23.3-27V667c0,0-10.1,25.8-34.2,27.8c0,0,0.9-1.1,1.8-6
			c0,0,19.5-4.8,24.5-16.8l-0.3-2.7c0,0-11.1,14-23.1,14l1.2-5.7c0,0,10.5-1.1,14.7-10.1c0,0-7.1,4.5-12.8,5.3l1.1-4.7
			c0,0,14-3,14.6-10.4c0.6-7.4-11.9,6.2-11.9,6.2s2.3-1.1,1.7-9c0,0,17.4-7.8,23.4-20.6c0-0.2,0.2-0.3,0.2-0.5h5.7
			c0,0,8.1,16.8,24.6,19.1c0,0,1.2,6.6,3,9.6c0,0-7.5-0.8-14-4.8c0,0,3.8,6.5,13.1,9.2c0,0-2.9,1.1-5.3,0.2c0,0,4.1,5.9,10.5,8v2
			c0,0-27.5-12.5-34.7-23.4c0,0-1.5,6.5,2,13.1c3.5,6.5,20.1,22.7,34.8,20.9l1.1,3.2c0,0-16.1-0.6-21.9-5.3c0,0,9.5,9.2,22.8,9.3
			l1.4,7.4c0,0-9.5,1.5-15.2-2.3c0,0,5.6,10.8,15.2,12.8c0,0,1.2,2.3-1.2,1.8c-2.4-0.6-26.9-9.5-39.5-28.8c0,0,11.7,29.4,46.5,39.3
			c0,0,0.2,1.7,1.4,3.2c0,0-9.5-1.8-8.3,0.6c1.1,2.3,10.7,5.7,10.7,5.7s-1.1,2.7,0,6.3c0,0-27.9-6.8-38.4-20c0,0,9.5,16.5,35.7,21.9
			c0,0-0.8,3.8,1.1,6.8c0,0-37.1-3-50.4-31.4c0,0-2.3,31.5,38.4,35.4c0,0-10.7,3.3-22.7-2.1c0,0,11.1,11.9,40.4,10.2
			c0,0,0.3,4.2,3.2,5.4c0,0-11.6,3.6-18.5,2.7c0,0,7.8,5.3,20,7.4v2.9c0,0-26,0-35-5.1c0,0,12,13.4,30.2,13.4c0,0-2,4.4-6.6,3.9
			c-4.7-0.3-31.7-7.2-43.7-27c0,0,7.8,21.2,25.2,26.6c0,0-22.4-7.4-28.2-16.2c0,0,13.1,20.3,38.3,25.8l-0.2,3.2
			c0,0-25.2-5.6-36.3-20.7c0,0,8.9,11.9,16.1,15.3c0,0-17.4-2-21.2-15C443.4,770.7,444.9,766,444.9,766z"/>
		<g>
			<g>
				<path class="st65" d="M476.6,791.1c0.5,0.2,1.1,0.3,1.5,0.6C477.8,791.5,477.4,791.4,476.6,791.1z"/>
				<path class="st65" d="M478.1,791.7c0.3,0.2,0.5,0.2,0.5,0.2C478.4,791.7,478.3,791.7,478.1,791.7z"/>
				<path class="st65" d="M506.9,767.2c-2.9-1.2-3.2-5.4-3.2-5.4c-29.1,1.7-40.4-10.2-40.4-10.2c12,5.4,22.7,2.1,22.7,2.1
					c-25.1-2.4-33.9-15.3-36.9-24.9l0,0c-3.3-5.1-4.4-14.7-4.4-14.7l-0.9,17.9c-10.2,18.6-35,31.8-35,31.8
					c12.2-3.8,22.5-12.2,22.5-12.2c-21.3,19.8-39.3,20-39.3,20c-0.2,3.2-1.5,7.8-1.5,7.8c19.7-0.6,50.6-24.8,50.6-24.8
					c-15.3,22.8-51.9,30.9-51.9,30.9c-0.5,4.2-3.6,9.8-3.6,9.8c14-0.6,30.9-6.5,30.9-6.5c-4.8,4.8-21.9,10.2-21.9,10.2v3.2
					c35.6-8.9,50.1-36,50.1-36s-1.5,4.7,2.3,17.9c3.6,13.2,21.2,15,21.2,15c-5.7-2.7-12.3-10.5-15-13.8
					c11.7,14.1,35.1,19.2,35.1,19.2l0.2-3.2c-25.2-5.6-38.3-25.8-38.3-25.8c4.8,7.4,20.7,13.5,26.3,15.6
					c-16.1-6.2-23.3-25.8-23.3-25.8c12,20,39,26.7,43.7,27c4.7,0.3,6.6-3.9,6.6-3.9c-18.2,0-30.2-13.4-30.2-13.4
					c9,5.1,35,5.1,35,5.1v-2.9c-12.2-2.1-20-7.4-20-7.4C495.4,770.8,506.9,767.2,506.9,767.2z M452.9,784.6
					c-0.6-0.6-0.9-1.1-0.9-1.1C452.3,784,452.6,784.3,452.9,784.6z"/>
			</g>
		</g>
		<path class="st65" d="M476.6,791.1c0.5,0.2,1.1,0.3,1.5,0.6C477.8,791.5,477.4,791.4,476.6,791.1z"/>
		<path class="st65" d="M478.1,791.7c0.3,0.2,0.5,0.2,0.5,0.2C478.4,791.7,478.3,791.7,478.1,791.7z"/>
		<path class="st65" d="M452.9,784.6c-0.6-0.6-0.9-1.1-0.9-1.1C452.3,784,452.6,784.3,452.9,784.6z"/>
		<path class="st65" d="M476.6,791.1c0.5,0.2,1.1,0.3,1.5,0.6C477.8,791.5,477.4,791.4,476.6,791.1z"/>
		<path class="st65" d="M478.1,791.7c0.3,0.2,0.5,0.2,0.5,0.2C478.4,791.7,478.3,791.7,478.1,791.7z"/>
		<path class="st65" d="M476.6,791.1c0.5,0.2,1.1,0.3,1.5,0.6C477.8,791.5,477.4,791.4,476.6,791.1z"/>
		<path class="st65" d="M478.1,791.7c0.3,0.2,0.5,0.2,0.5,0.2C478.4,791.7,478.3,791.7,478.1,791.7z"/>
		<path class="st65" d="M452.9,784.6c-0.6-0.6-0.9-1.1-0.9-1.1C452.3,784,452.6,784.3,452.9,784.6z"/>
		<path class="st65" d="M451.8,588.5c5,1.7,13.8,12.2,13.8,12.5c0,0.2-0.9-2.9-2.3-7.5C457.5,589.4,451.8,588.5,451.8,588.5
			L451.8,588.5z"/>
		<path class="st65" d="M445.1,600.5c-4.8,6-9.6,8.1-11,8.6c-0.6,2.4-2,4.4-2,4.4c4.7-2.3,12.3-11.7,12.3-11.7
			c-5,10.7-12.5,15.9-12.5,15.9c0.2,0.6,0,1.8-0.3,3.3C442.4,614.8,445.1,600.5,445.1,600.5z"/>
		<path class="st65" d="M451.4,620.2c0.2,2.6,1.1,4.8,2.4,6.8c-2.7-11.9-1.7-32.7-3.2-24c-1.8,11.3-17.7,22.8-17.7,22.8v-6.5
			l-1.2,1.2c-0.8,3.9-2.4,9.9-2.4,9.9c17.1-6.3,21-25.4,21-25.4S450.2,605.9,451.4,620.2z"/>
		<path class="st65" d="M475.6,641.8c-1.5-2.6-2.7-8.1-3.2-11c-11.3-4.5-12.9-14.9-12.9-14.9c2.3,2.6,2.7,2.4,2.9,2.4
			c0-0.2,0-0.2,0-0.2c2.9,2.7,7.7,2,7.7,2V620c-7.7,1.2-18.3-16.2-18.3-16.2l-0.5,2.4l1.4,18.5C457.2,635.9,475.6,641.8,475.6,641.8
			z"/>
		<path class="st65" d="M464.2,651.1c0.2,0.2,6.2,8.3,14.6,11.7c1.1,0.2,1.7,0.3,1.7,0.3c-1.8-3-3-9.6-3-9.6
			c-5.1-0.8-9.5-2.9-12.9-5.4h-1.2l3.6,3.6L464.2,651.1z"/>
		<path class="st65" d="M484.7,675.6c-6.5-2.1-10.5-8-10.5-8c2.3,0.8,5.3-0.2,5.3-0.2c-4.1-1.2-7.1-3-9.2-4.8
			c-8.3-4.5-11.6-11-11.6-11c0.6,2.3,1.7,4.4,1.7,4.4c-2.7-1.7-4.8-9.2-4.8-9.2c0.5,6.6,4.8,11.4,4.8,11.4c-4.7-3-6.5-9.6-6.5-9.6
			c1.2,5.6,3,10.1,5,13.8c10.8,8,25.8,14.9,25.8,14.9V675.6z"/>
		<path class="st65" d="M440.1,674.4c0,0-6.5,11-14.1,14.1c-7.8,3.2-11.3,2.7-10.7,1.2c0.6-1.5,8.1,0.5,14.9-6
			C436.7,677.4,440.3,672.7,440.1,674.4z"/>
		<g>
			<path class="st65" d="M432,656.2l5.7-6.3l-8.3,2.4c-3.5,2.1-6,3.2-6,3.2c0.3,5.4-0.5,7.7-1.1,8.6
				C424.1,662.2,429.2,656.9,432,656.2z"/>
			<path class="st65" d="M422.3,663.8c-0.3,0.3-0.6,0.6-0.6,0.6S422,664.3,422.3,663.8z"/>
		</g>
		<path class="st65" d="M432,675.9c5.3-7.2,5.7-15.2,5.7-15.2c-8.1,20-21.8,17.3-21.8,17.3l-1.2,5.7
			C421.4,683.8,427.7,679.6,432,675.9z"/>
		<path class="st65" d="M448.8,635.8c0,0-5.9,6.8-3.6,6.5c2.3-0.2,7.1-2.9,6.5-4.7C450.9,635.6,450.2,634.4,448.8,635.8z"/>
		<path class="st65" d="M458.6,684.6c2.1,5.1,5.7,12,5.7,12c-7.2-3.9-11-12.9-11-12.9c2.1,5.9,6,12,9.3,16.5
			c11.9,9.6,24.6,14.3,26.4,14.6c1.8,0.5,1.7-0.9,1.4-1.5c-15.2-3.6-22.2-17.9-22.2-17.9c6.9,4.7,20.3,2.4,20.3,2.4
			C466.1,697.3,458.6,684.6,458.6,684.6z"/>
		<path class="st65" d="M402.2,733.3c0.3,0,0.6,0,0.9,0c26.4-3.9,37.1-31.1,37.1-31.1c-2.4,4.5-7.5,7.4-11.9,9.2
			c-10.1,9.6-24,14.1-24,14.1C404,727.8,402.2,733.3,402.2,733.3z"/>
		<path class="st65" d="M447,711c1.5,6.6,4.5,12.9,7.7,18c16.2,18.5,43.4,20.6,43.4,20.6c-1.8-3-1.1-6.8-1.1-6.8
			c-26.3-5.4-35.7-21.9-35.7-21.9c10.5,13.2,38.4,20,38.4,20c-0.2-0.3-0.2-0.6-0.3-0.9c-20-5.9-34.1-18.9-34.1-18.9
			c5.3,3.5,19.2,0,19.2,0c-28.4-4.7-35.1-14.9-35.1-14.9c4.4,16.4,17.3,25.8,17.3,25.8C455.7,726.1,447,711,447,711z"/>
		<path class="st65" d="M503.8,761.8c-19.2,1.1-30.5-3.6-36-7.1l0,0c0,0,9.3,10.4,23.9,15.3c6.8-0.2,15.3-2.9,15.3-2.9
			C504.1,766,503.8,761.8,503.8,761.8z"/>
		<g>
			<path class="st65" d="M420,780c11.9-6.3,20.7-24.8,20.7-24.8l0,0c-6.2,8.9-15.6,15.6-24.8,20.3l0,0l0,0
				c-13.7,7.2-26.7,10.1-26.7,10.1c-0.5,4.2-3.6,9.8-3.6,9.8c5-0.3,10.4-1.1,15.2-2.1c17.9-5.7,30.6-18.8,34.2-22.8
				C430.5,774.9,420,780,420,780z"/>
			<path class="st65" d="M435,770.2c0.5-0.5,0.8-0.9,1.1-1.2C436.1,769,435.8,769.5,435,770.2z"/>
		</g>
		<path class="st65" d="M449.3,745c0,0-0.2,20.3,24.9,27.9c0,0-12.9-5.1-16.1-12.2c0,0,5.4,5.4,11.3,6.3
			C469.3,767.1,454.5,758.1,449.3,745z"/>
		<path class="st65" d="M453.6,782.7c0,0,16.8,12.5,33.6,13.8c0,0-24.6,1.2-35.3-9.9c0,0,3,2.6,7.4,2.6
			C459.5,789,456.5,788.2,453.6,782.7z"/>
		<path class="st65" d="M444.8,736.3c0,0-5.6,16.4-20.7,24.3c0,0,11.9-3.6,16.5-10.5c0,0-1.8,3.3-3.3,5.1
			C437.4,755.2,444,750.7,444.8,736.3z"/>
		<path class="st65" d="M486.1,753.7c-16.7-1.7-26.1-8-31.5-14.7c-2.7-1.4-5.3-3-7.5-4.8C446.7,733.9,460.8,757.3,486.1,753.7z"/>
		<path class="st65" d="M445.1,687.4c0,0,7.5,23.1,26.4,25.8c0,0-11.6-4.2-17.7-17l1.8,1.7l-6.2-11.9l-0.6,6L445.1,687.4z"/>
	</g>
	<g class="st8">
		<g>
			<polygon class="st65" points="53.7,786 47.2,786 50.5,643.7 53.7,643.7 			"/>
			<path class="st65" d="M52.5,658c0,0-2.3,11.4-12.6,15.2c0,0,1.8-6.3,1.6-7.7c0,0,4.5-3.2,7.5-9.6c0,0-4.6,5.7-7.4,7
				c0,0,1.4-2,1.4-4.1l3.2-3.6l-2.3,1.7l8.6-33.3c0,0,9.2,32,9.2,31.8c0-0.2-7.7-9.2-9.6-7.4c-2.1,1.9,5.4,10.5,10.2,11
				c0,0,1.3,4.5,2,7.8c0,0-2.9,0.5-4.6-1.2c0,0,1.8,4,5.9,6.4c0,0,0.8,5.7,2.2,7.8c0,0-13.8-4.4-14.5-13
				C52.4,658.5,52.5,658,52.5,658z"/>
			<path class="st65" d="M49.2,754.7c0,0-8.7,16.3-30.1,21.6v-1.9c0,0,10.2-3.2,13.2-6.1c0,0-10.2,3.4-18.6,3.9c0,0,1.9-3.3,2.2-5.9
				c0,0,22-4.9,31.2-18.6c0,0-18.6,14.4-30.4,14.9c0,0,0.8-2.8,0.9-4.7c0,0,10.9-0.1,23.7-12c0,0-6.2,5-13.5,7.3
				c0,0,14.9-7.9,21-19.1l0.5-10.7c0,0-13,16.8-25.8,15.4l0.1-1.6c0,0,9.5-1.4,12.2-5.3c0,0-6.4,3.4-12.2,3.1c0,0,1.1-3.4,1.2-4.7
				c0,0,14-4.4,18.9-14.3l-9.2,6.5l1.6-3.6c0,0,11.9-8.3,14-16.2v-7.4c0,0-6,15.5-20.5,16.7c0,0,0.5-0.6,1.1-3.6
				c0,0,11.7-2.9,14.7-10.1l-0.2-1.6c0,0-6.7,8.4-13.9,8.4l0.7-3.4c0,0,6.3-0.6,8.8-6c0,0-4.2,2.7-7.7,3.2l0.6-2.8
				c0,0,8.4-1.8,8.7-6.2c0.4-4.4-7.1,3.7-7.1,3.7s1.4-0.6,1-5.4c0,0,10.5-4.7,14.1-12.3c0-0.1,0.1-0.2,0.1-0.3H54
				c0,0,4.9,10.1,14.8,11.4c0,0,0.7,4,1.8,5.8c0,0-4.5-0.5-8.4-2.9c0,0,2.3,3.9,7.8,5.5c0,0-1.7,0.6-3.2,0.1c0,0,2.4,3.5,6.3,4.8
				v1.2c0,0-16.5-7.5-20.8-14.1c0,0-0.9,3.9,1.2,7.8c2.1,3.9,12.1,13.6,20.9,12.5l0.6,1.9c0,0-9.6-0.4-13.2-3.2
				c0,0,5.7,5.5,13.7,5.6l0.8,4.4c0,0-5.7,0.9-9.1-1.4c0,0,3.3,6.5,9.1,7.7c0,0,0.7,1.4-0.7,1.1c-1.4-0.4-16.1-5.7-23.7-17.3
				c0,0,7,17.7,27.9,23.6c0,0,0.1,1,0.8,1.9c0,0-5.7-1.1-5,0.4c0.6,1.4,6.4,3.4,6.4,3.4s-0.6,1.6,0,3.8c0,0-16.8-4.1-23.1-12
				c0,0,5.7,9.9,21.4,13.2c0,0-0.5,2.3,0.6,4.1c0,0-22.3-1.8-30.3-18.8c0,0-1.4,18.9,23.1,21.3c0,0-6.4,2-13.6-1.3
				c0,0,6.7,7.1,24.2,6.1c0,0,0.2,2.5,1.9,3.2c0,0-6.9,2.2-11.1,1.6c0,0,4.7,3.2,12,4.4v1.7c0,0-15.6,0-21-3.1c0,0,7.2,8,18.1,8
				c0,0-1.2,2.6-4,2.3c-2.8-0.2-19-4.3-26.2-16.2c0,0,4.7,12.7,15.1,16c0,0-13.4-4.4-16.9-9.7c0,0,7.8,12.2,23,15.5l-0.1,1.9
				c0,0-15.1-3.3-21.8-12.4c0,0,5.3,7.1,9.6,9.2c0,0-10.5-1.2-12.7-9C48.3,757.5,49.2,754.7,49.2,754.7z"/>
			<g>
				<g>
					<path class="st65" d="M68.2,769.7c0.3,0.1,0.6,0.2,0.9,0.4C69,770,68.7,769.9,68.2,769.7z"/>
					<path class="st65" d="M69.1,770.1c0.2,0.1,0.3,0.1,0.3,0.1C69.3,770.1,69.2,770.1,69.1,770.1z"/>
					<path class="st65" d="M86.5,755.4c-1.7-0.7-1.9-3.2-1.9-3.2c-17.5,1-24.2-6.1-24.2-6.1c7.2,3.2,13.6,1.3,13.6,1.3
						c-15.1-1.4-20.4-9.2-22.2-15l0,0c-2-3.1-2.6-8.8-2.6-8.8l-0.5,10.7c-6.1,11.2-21,19.1-21,19.1c7.3-2.3,13.5-7.3,13.5-7.3
						c-12.8,11.9-23.6,12-23.6,12c-0.1,1.9-0.9,4.7-0.9,4.7c11.8-0.4,30.4-14.9,30.4-14.9c-9.2,13.7-31.2,18.6-31.2,18.6
						c-0.3,2.5-2.2,5.9-2.2,5.9c8.4-0.4,18.6-3.9,18.6-3.9c-2.9,2.9-13.2,6.1-13.2,6.1v1.9c21.4-5.3,30.1-21.6,30.1-21.6
						s-0.9,2.8,1.4,10.7c2.2,7.9,12.7,9,12.7,9c-3.4-1.6-7.4-6.3-9-8.3c7,8.5,21.1,11.5,21.1,11.5l0.1-1.9
						c-15.1-3.3-23-15.5-23-15.5c2.9,4.4,12.4,8.1,15.8,9.4c-9.6-3.7-14-15.5-14-15.5c7.2,12,23.4,16,26.2,16.2c2.8,0.2,4-2.3,4-2.3
						c-10.9,0-18.1-8-18.1-8c5.4,3.1,21,3.1,21,3.1v-1.7c-7.3-1.3-12-4.4-12-4.4C79.5,757.5,86.5,755.4,86.5,755.4z M54,765.8
						c-0.4-0.4-0.5-0.6-0.5-0.6C53.6,765.5,53.8,765.7,54,765.8z"/>
				</g>
			</g>
			<path class="st65" d="M68.2,769.7c0.3,0.1,0.6,0.2,0.9,0.4C69,770,68.7,769.9,68.2,769.7z"/>
			<path class="st65" d="M69.1,770.1c0.2,0.1,0.3,0.1,0.3,0.1C69.3,770.1,69.2,770.1,69.1,770.1z"/>
			<path class="st65" d="M54,765.8c-0.4-0.4-0.5-0.6-0.5-0.6C53.6,765.5,53.8,765.7,54,765.8z"/>
			<path class="st65" d="M68.2,769.7c0.3,0.1,0.6,0.2,0.9,0.4C69,770,68.7,769.9,68.2,769.7z"/>
			<path class="st65" d="M69.1,770.1c0.2,0.1,0.3,0.1,0.3,0.1C69.3,770.1,69.2,770.1,69.1,770.1z"/>
			<path class="st65" d="M68.2,769.7c0.3,0.1,0.6,0.2,0.9,0.4C69,770,68.7,769.9,68.2,769.7z"/>
			<path class="st65" d="M69.1,770.1c0.2,0.1,0.3,0.1,0.3,0.1C69.3,770.1,69.2,770.1,69.1,770.1z"/>
			<path class="st65" d="M54,765.8c-0.4-0.4-0.5-0.6-0.5-0.6C53.6,765.5,53.8,765.7,54,765.8z"/>
			<path class="st65" d="M53.4,648c3,1,8.3,7.3,8.3,7.5c0,0.1-0.5-1.7-1.4-4.5C56.8,648.6,53.4,648,53.4,648L53.4,648z"/>
			<path class="st65" d="M49.3,655.3c-2.9,3.6-5.8,4.9-6.6,5.1c-0.4,1.4-1.2,2.6-1.2,2.6c2.8-1.4,7.4-7,7.4-7
				c-3,6.4-7.5,9.6-7.5,9.6c0.1,0.4,0,1.1-0.2,2C47.7,663.8,49.3,655.3,49.3,655.3z"/>
			<path class="st65" d="M53.1,667.1c0.1,1.5,0.6,2.9,1.4,4.1c-1.6-7.1-1-19.6-1.9-14.4c-1.1,6.8-10.6,13.7-10.6,13.7v-3.9l-0.7,0.7
				c-0.5,2.3-1.4,5.9-1.4,5.9c10.3-3.8,12.6-15.2,12.6-15.2S52.4,658.5,53.1,667.1z"/>
			<path class="st65" d="M67.6,680c-0.9-1.5-1.6-4.9-1.9-6.6c-6.8-2.7-7.8-8.9-7.8-8.9c1.4,1.5,1.6,1.4,1.7,1.4c0-0.1,0-0.1,0-0.1
				c1.7,1.6,4.6,1.2,4.6,1.2V667c-4.6,0.7-11-9.7-11-9.7l-0.3,1.4l0.8,11.1C56.6,676.5,67.6,680,67.6,680z"/>
			<path class="st65" d="M60.8,685.6c0.1,0.1,3.7,5,8.7,7c0.6,0.1,1,0.2,1,0.2c-1.1-1.8-1.8-5.8-1.8-5.8c-3.1-0.5-5.7-1.7-7.8-3.2
				h-0.7l2.2,2.2L60.8,685.6z"/>
			<path class="st65" d="M73.1,700.3c-3.9-1.3-6.3-4.8-6.3-4.8c1.4,0.5,3.2-0.1,3.2-0.1c-2.4-0.7-4.2-1.8-5.5-2.9
				c-5-2.7-6.9-6.6-6.9-6.6c0.4,1.4,1,2.6,1,2.6c-1.6-1-2.9-5.5-2.9-5.5c0.3,4,2.9,6.8,2.9,6.8c-2.8-1.8-3.9-5.8-3.9-5.8
				c0.7,3.3,1.8,6,3,8.3c6.5,4.8,15.5,8.9,15.5,8.9V700.3z"/>
			<path class="st65" d="M46.3,699.6c0,0-3.9,6.6-8.5,8.5c-4.7,1.9-6.8,1.6-6.4,0.7s4.9,0.3,8.9-3.6
				C44.3,701.4,46.4,698.6,46.3,699.6z"/>
			<g>
				<path class="st65" d="M41.5,688.7l3.4-3.8l-5,1.4c-2.1,1.3-3.6,1.9-3.6,1.9c0.2,3.2-0.3,4.6-0.6,5.1
					C36.7,692.3,39.8,689.1,41.5,688.7z"/>
				<path class="st65" d="M35.6,693.3c-0.2,0.2-0.4,0.4-0.4,0.4S35.4,693.6,35.6,693.3z"/>
			</g>
			<path class="st65" d="M41.5,700.5c3.2-4.3,3.4-9.1,3.4-9.1c-4.9,12-13.1,10.4-13.1,10.4l-0.7,3.4
				C35.1,705.3,38.9,702.7,41.5,700.5z"/>
			<path class="st65" d="M51.6,676.4c0,0-3.5,4.1-2.2,3.9c1.4-0.1,4.2-1.7,3.9-2.8C52.8,676.3,52.4,675.6,51.6,676.4z"/>
			<path class="st65" d="M57.4,705.7c1.3,3.1,3.4,7.2,3.4,7.2c-4.3-2.3-6.6-7.8-6.6-7.8c1.3,3.5,3.6,7.2,5.6,9.9
				c7.1,5.8,14.8,8.6,15.9,8.7c1.1,0.3,1-0.5,0.8-0.9c-9.1-2.2-13.3-10.7-13.3-10.7c4.1,2.8,12.2,1.4,12.2,1.4
				C61.9,713.4,57.4,705.7,57.4,705.7z"/>
			<path class="st65" d="M23.5,735c0.2,0,0.4,0,0.5,0c15.9-2.3,22.3-18.7,22.3-18.7c-1.4,2.7-4.5,4.4-7.1,5.5
				c-6,5.8-14.4,8.5-14.4,8.5C24.6,731.7,23.5,735,23.5,735z"/>
			<path class="st65" d="M50.5,721.6c0.9,4,2.7,7.8,4.6,10.8c9.7,11.1,26,12.3,26,12.3c-1.1-1.8-0.6-4.1-0.6-4.1
				c-15.8-3.2-21.4-13.2-21.4-13.2c6.3,7.9,23.1,12,23.1,12c-0.1-0.2-0.1-0.4-0.2-0.5c-12-3.5-20.5-11.4-20.5-11.4
				c3.2,2.1,11.5,0,11.5,0c-17-2.8-21.1-8.9-21.1-8.9c2.6,9.8,10.4,15.5,10.4,15.5C55.7,730.7,50.5,721.6,50.5,721.6z"/>
			<path class="st65" d="M84.6,752.1c-11.5,0.6-18.3-2.2-21.6-4.2l0,0c0,0,5.6,6.2,14.3,9.2c4.1-0.1,9.2-1.7,9.2-1.7
				C84.7,754.7,84.6,752.1,84.6,752.1z"/>
			<g>
				<path class="st65" d="M34.3,763c7.1-3.8,12.4-14.9,12.4-14.9l0,0c-3.7,5.3-9.4,9.4-14.9,12.2l0,0l0,0c-8.2,4.3-16,6-16,6
					c-0.3,2.5-2.2,5.9-2.2,5.9c3-0.2,6.2-0.6,9.1-1.3c10.7-3.4,18.4-11.3,20.5-13.7C40.6,760,34.3,763,34.3,763z"/>
				<path class="st65" d="M43.3,757.2c0.3-0.3,0.5-0.5,0.6-0.7C43.9,756.5,43.7,756.7,43.3,757.2z"/>
			</g>
			<path class="st65" d="M51.8,742c0,0-0.1,12.2,15,16.8c0,0-7.8-3.1-9.6-7.3c0,0,3.2,3.2,6.8,3.8C63.8,755.3,55,749.9,51.8,742z"/>
			<path class="st65" d="M54.5,764.7c0,0,10.1,7.5,20.2,8.3c0,0-14.8,0.7-21.2-5.9c0,0,1.8,1.5,4.4,1.5
				C58,768.4,56.2,768,54.5,764.7z"/>
			<path class="st65" d="M49.1,736.8c0,0-3.3,9.8-12.4,14.6c0,0,7.1-2.2,9.9-6.3c0,0-1.1,2-2,3.1C44.7,748.2,48.7,745.5,49.1,736.8z
				"/>
			<path class="st65" d="M73.9,747.3c-10-1-15.7-4.8-18.9-8.8c-1.6-0.8-3.2-1.8-4.5-2.9C50.3,735.4,58.8,749.4,73.9,747.3z"/>
			<path class="st65" d="M49.3,707.4c0,0,4.5,13.9,15.9,15.5c0,0-6.9-2.5-10.6-10.2l1.1,1l-3.7-7.1l-0.4,3.6L49.3,707.4z"/>
		</g>
		<g>
			<polygon class="st65" points="148.4,788 140.5,788 144.4,613.8 148.4,613.8 			"/>
			<path class="st65" d="M146.9,631.2c0,0-2.9,14-15.5,18.7c0,0,2.2-7.7,2-9.4c0,0,5.5-3.9,9.2-11.7c0,0-5.6,7-9,8.6
				c0,0,1.7-2.4,1.7-5.1l3.9-4.4l-2.8,2.1l10.5-40.8c0,0,11.3,39.2,11.3,39c0-0.2-9.4-11.3-11.8-9c-2.5,2.3,6.6,12.9,12.5,13.5
				c0,0,1.5,5.5,2.4,9.5c0,0-3.5,0.7-5.6-1.4c0,0,2.2,4.9,7.3,7.8c0,0,1,7,2.6,9.6c0,0-16.9-5.4-17.8-15.9
				C146.8,631.9,146.9,631.2,146.9,631.2z"/>
			<path class="st65" d="M142.9,749.6c0,0-10.7,20-36.9,26.5v-2.3c0,0,12.5-3.9,16.1-7.5c0,0-12.5,4.2-22.7,4.7c0,0,2.3-4.1,2.6-7.2
				c0,0,26.9-6,38.2-22.7c0,0-22.7,17.7-37.2,18.2c0,0,1-3.4,1.1-5.7c0,0,13.4-0.1,29-14.7c0,0-7.6,6.2-16.6,8.9
				c0,0,18.2-9.7,25.7-23.4l0.7-13.1c0,0-15.9,20.5-31.6,18.9l0.1-2c0,0,11.6-1.7,14.9-6.5c0,0-7.8,4.2-14.9,3.8
				c0,0,1.3-4.2,1.4-5.7c0,0,17.1-5.4,23.2-17.5l-11.3,7.9l2-4.4c0,0,14.6-10.2,17.1-19.9v-9c0,0-7.4,19-25.2,20.4
				c0,0,0.7-0.8,1.3-4.4c0,0,14.3-3.5,18-12.4l-0.2-2c0,0-8.2,10.3-17,10.3l0.9-4.2c0,0,7.7-0.8,10.8-7.4c0,0-5.2,3.3-9.4,3.9
				l0.8-3.4c0,0,10.3-2.2,10.7-7.6c0.4-5.4-8.7,4.5-8.7,4.5s1.7-0.8,1.2-6.6c0,0,12.8-5.7,17.2-15.1c0-0.1,0.1-0.2,0.1-0.3h4.2
				c0,0,6,12.4,18.1,14c0,0,0.9,4.9,2.2,7.1c0,0-5.5-0.6-10.3-3.5c0,0,2.8,4.7,9.6,6.7c0,0-2.1,0.8-3.9,0.1c0,0,3,4.3,7.7,5.8v1.4
				c0,0-20.2-9.2-25.5-17.2c0,0-1.1,4.7,1.4,9.6c2.5,4.7,14.8,16.7,25.6,15.3l0.8,2.3c0,0-11.8-0.4-16.1-3.9c0,0,7,6.7,16.8,6.8
				l1,5.4c0,0-7,1.1-11.1-1.7c0,0,4.1,7.9,11.1,9.4c0,0,0.9,1.7-0.9,1.3c-1.8-0.4-19.8-7-29-21.2c0,0,8.6,21.6,34.2,28.9
				c0,0,0.1,1.2,1,2.3c0,0-7-1.3-6.1,0.4c0.8,1.7,7.8,4.2,7.8,4.2s-0.8,2,0,4.6c0,0-20.5-5-28.3-14.7c0,0,7,12.1,26.3,16.1
				c0,0-0.6,2.8,0.8,5c0,0-27.3-2.2-37.1-23.1c0,0-1.7,23.2,28.3,26c0,0-7.8,2.4-16.7-1.5c0,0,8.2,8.7,29.7,7.5c0,0,0.2,3.1,2.3,4
				c0,0-8.5,2.6-13.6,2c0,0,5.7,3.9,14.7,5.4v2.1c0,0-19.1,0-25.7-3.8c0,0,8.8,9.8,22.2,9.8c0,0-1.4,3.2-4.9,2.9
				c-3.4-0.2-23.3-5.3-32.1-19.9c0,0,5.7,15.6,18.5,19.5c0,0-16.4-5.4-20.7-11.9c0,0,9.6,14.9,28.1,19l-0.1,2.3
				c0,0-18.5-4.1-26.7-15.2c0,0,6.5,8.7,11.8,11.3c0,0-12.8-1.4-15.6-11C141.8,753,142.9,749.6,142.9,749.6z"/>
			<g>
				<g>
					<path class="st65" d="M166.2,768.1c0.3,0.1,0.8,0.2,1.1,0.4C167.1,768.4,166.7,768.3,166.2,768.1z"/>
					<path class="st65" d="M167.3,768.5c0.2,0.1,0.3,0.1,0.3,0.1C167.5,768.5,167.4,768.5,167.3,768.5z"/>
					<path class="st65" d="M188.5,750.5c-2.1-0.9-2.3-4-2.3-4c-21.4,1.2-29.7-7.5-29.7-7.5c8.8,4,16.7,1.5,16.7,1.5
						c-18.4-1.8-24.9-11.3-27.1-18.3l0,0c-2.4-3.8-3.2-10.8-3.2-10.8l-0.7,13.1c-7.5,13.7-25.7,23.4-25.7,23.4
						c8.9-2.8,16.6-8.9,16.6-8.9c-15.7,14.6-28.9,14.7-28.9,14.7c-0.1,2.3-1.1,5.7-1.1,5.7c14.5-0.4,37.2-18.2,37.2-18.2
						C128.9,758,101.9,764,101.9,764c-0.3,3.1-2.6,7.2-2.6,7.2c10.3-0.4,22.7-4.7,22.7-4.7c-3.5,3.5-16.1,7.5-16.1,7.5v2.3
						c26.2-6.5,36.9-26.5,36.9-26.5s-1.1,3.4,1.7,13.1c2.6,9.7,15.6,11,15.6,11c-4.2-2-9-7.7-11-10.2c8.6,10.4,25.8,14.1,25.8,14.1
						l0.1-2.3c-18.5-4.1-28.1-19-28.1-19c3.5,5.4,15.2,9.9,19.3,11.5c-11.8-4.5-17.1-19-17.1-19c8.8,14.7,28.7,19.6,32.1,19.9
						c3.4,0.2,4.9-2.9,4.9-2.9c-13.4,0-22.2-9.8-22.2-9.8c6.6,3.8,25.7,3.8,25.7,3.8v-2.1c-8.9-1.5-14.7-5.4-14.7-5.4
						C180,753.2,188.5,750.5,188.5,750.5z M148.7,763.3c-0.4-0.4-0.7-0.8-0.7-0.8C148.3,762.9,148.5,763.1,148.7,763.3z"/>
				</g>
			</g>
			<path class="st65" d="M166.2,768.1c0.3,0.1,0.8,0.2,1.1,0.4C167.1,768.4,166.7,768.3,166.2,768.1z"/>
			<path class="st65" d="M167.3,768.5c0.2,0.1,0.3,0.1,0.3,0.1C167.5,768.5,167.4,768.5,167.3,768.5z"/>
			<path class="st65" d="M148.7,763.3c-0.4-0.4-0.7-0.8-0.7-0.8C148.3,762.9,148.5,763.1,148.7,763.3z"/>
			<path class="st65" d="M166.2,768.1c0.3,0.1,0.8,0.2,1.1,0.4C167.1,768.4,166.7,768.3,166.2,768.1z"/>
			<path class="st65" d="M167.3,768.5c0.2,0.1,0.3,0.1,0.3,0.1C167.5,768.5,167.4,768.5,167.3,768.5z"/>
			<path class="st65" d="M166.2,768.1c0.3,0.1,0.8,0.2,1.1,0.4C167.1,768.4,166.7,768.3,166.2,768.1z"/>
			<path class="st65" d="M167.3,768.5c0.2,0.1,0.3,0.1,0.3,0.1C167.5,768.5,167.4,768.5,167.3,768.5z"/>
			<path class="st65" d="M148.7,763.3c-0.4-0.4-0.7-0.8-0.7-0.8C148.3,762.9,148.5,763.1,148.7,763.3z"/>
			<path class="st65" d="M148,619.1c3.6,1.2,10.2,8.9,10.2,9.2c0,0.1-0.7-2.1-1.7-5.5C152.2,619.7,148,619.1,148,619.1L148,619.1z"
				/>
			<path class="st65" d="M143,627.9c-3.5,4.4-7.1,6-8.1,6.3c-0.4,1.8-1.4,3.2-1.4,3.2c3.4-1.7,9-8.6,9-8.6
				c-3.6,7.8-9.2,11.7-9.2,11.7c0.1,0.4,0,1.3-0.2,2.4C141,638.4,143,627.9,143,627.9z"/>
			<path class="st65" d="M147.6,642.4c0.1,1.9,0.8,3.5,1.8,5c-2-8.7-1.2-24.1-2.3-17.7c-1.3,8.3-13,16.8-13,16.8v-4.7l-0.9,0.9
				c-0.6,2.9-1.8,7.3-1.8,7.3c12.6-4.6,15.5-18.7,15.5-18.7S146.8,631.9,147.6,642.4z"/>
			<path class="st65" d="M165.4,658.2c-1.1-1.9-2-6-2.3-8.1c-8.3-3.3-9.5-10.9-9.5-10.9c1.7,1.9,2,1.8,2.1,1.8c0-0.1,0-0.1,0-0.1
				c2.1,2,5.6,1.4,5.6,1.4v-0.1c-5.6,0.9-13.5-11.9-13.5-11.9l-0.3,1.8l1,13.6C151.9,653.9,165.4,658.2,165.4,658.2z"/>
			<path class="st65" d="M157,665.1c0.1,0.1,4.5,6.1,10.7,8.6c0.8,0.1,1.2,0.2,1.2,0.2c-1.3-2.2-2.2-7.1-2.2-7.1
				c-3.8-0.6-7-2.1-9.5-4h-0.9l2.6,2.6L157,665.1z"/>
			<path class="st65" d="M172.1,683.1c-4.7-1.5-7.7-5.8-7.7-5.8c1.7,0.6,3.9-0.1,3.9-0.1c-3-0.9-5.2-2.2-6.7-3.5
				c-6.1-3.3-8.5-8.1-8.5-8.1c0.4,1.7,1.2,3.2,1.2,3.2c-2-1.2-3.5-6.7-3.5-6.7c0.3,4.9,3.5,8.4,3.5,8.4c-3.4-2.2-4.7-7.1-4.7-7.1
				c0.9,4.1,2.2,7.4,3.6,10.2c7.9,5.8,19,10.9,19,10.9V683.1z"/>
			<path class="st65" d="M139.4,682.2c0,0-4.7,8.1-10.4,10.4c-5.7,2.3-8.3,2-7.8,0.9s6,0.3,10.9-4.4
				C136.8,684.4,139.5,681,139.4,682.2z"/>
			<g>
				<path class="st65" d="M133.4,668.8l4.2-4.6l-6.1,1.8c-2.5,1.5-4.4,2.3-4.4,2.3c0.2,4-0.3,5.6-0.8,6.3
					C127.6,673.3,131.3,669.4,133.4,668.8z"/>
				<path class="st65" d="M126.2,674.5c-0.2,0.2-0.4,0.4-0.4,0.4S126,674.8,126.2,674.5z"/>
			</g>
			<path class="st65" d="M133.4,683.3c3.9-5.3,4.2-11.1,4.2-11.1c-6,14.7-16,12.7-16,12.7l-0.9,4.2
				C125.6,689.1,130.2,686.1,133.4,683.3z"/>
			<path class="st65" d="M145.8,653.8c0,0-4.3,5-2.6,4.7c1.7-0.1,5.2-2.1,4.7-3.4C147.3,653.7,146.8,652.8,145.8,653.8z"/>
			<path class="st65" d="M152.9,689.7c1.5,3.8,4.2,8.8,4.2,8.8c-5.3-2.9-8.1-9.5-8.1-9.5c1.5,4.3,4.4,8.8,6.8,12.1
				c8.7,7.1,18.1,10.5,19.4,10.7c1.3,0.3,1.2-0.7,1-1.1c-11.1-2.6-16.3-13.1-16.3-13.1c5.1,3.4,14.9,1.8,14.9,1.8
				C158.5,699.1,152.9,689.7,152.9,689.7z"/>
			<path class="st65" d="M111.4,725.6c0.2,0,0.4,0,0.7,0c19.4-2.9,27.3-22.8,27.3-22.8c-1.8,3.3-5.5,5.4-8.7,6.7
				c-7.4,7.1-17.7,10.4-17.7,10.4C112.8,721.5,111.4,725.6,111.4,725.6z"/>
			<path class="st65" d="M144.4,709.1c1.1,4.9,3.3,9.5,5.6,13.2c11.9,13.6,31.9,15.1,31.9,15.1c-1.3-2.2-0.8-5-0.8-5
				c-19.3-4-26.3-16.1-26.3-16.1c7.7,9.7,28.3,14.7,28.3,14.7c-0.1-0.2-0.1-0.4-0.2-0.7c-14.7-4.3-25.1-13.9-25.1-13.9
				c3.9,2.5,14.1,0,14.1,0c-20.9-3.4-25.8-10.9-25.8-10.9c3.2,12,12.7,19,12.7,19C150.8,720.3,144.4,709.1,144.4,709.1z"/>
			<path class="st65" d="M186.2,746.5c-14.1,0.8-22.4-2.6-26.5-5.2l0,0c0,0,6.8,7.6,17.5,11.3c5-0.1,11.3-2.1,11.3-2.1
				C186.4,749.6,186.2,746.5,186.2,746.5z"/>
			<g>
				<path class="st65" d="M124.6,759.9c8.7-4.6,15.2-18.2,15.2-18.2l0,0c-4.5,6.5-11.5,11.5-18.2,14.9l0,0l0,0
					c-10,5.3-19.6,7.4-19.6,7.4c-0.3,3.1-2.6,7.2-2.6,7.2c3.6-0.2,7.6-0.8,11.1-1.5c13.1-4.2,22.5-13.8,25.2-16.8
					C132.3,756.1,124.6,759.9,124.6,759.9z"/>
				<path class="st65" d="M135.6,752.7c0.3-0.3,0.6-0.7,0.8-0.9C136.4,751.8,136.2,752.2,135.6,752.7z"/>
			</g>
			<path class="st65" d="M146.1,734.2c0,0-0.1,14.9,18.3,20.5c0,0-9.5-3.8-11.8-8.9c0,0,4,4,8.3,4.6
				C160.8,750.4,150,743.8,146.1,734.2z"/>
			<path class="st65" d="M149.3,761.9c0,0,12.4,9.2,24.7,10.2c0,0-18.1,0.9-25.9-7.3c0,0,2.2,1.9,5.4,1.9
				C153.6,766.5,151.4,766,149.3,761.9z"/>
			<path class="st65" d="M142.8,727.8c0,0-4.1,12-15.2,17.9c0,0,8.7-2.6,12.1-7.7c0,0-1.3,2.4-2.4,3.8
				C137.4,741.7,142.2,738.4,142.8,727.8z"/>
			<path class="st65" d="M173.1,740.6c-12.2-1.2-19.2-5.8-23.2-10.8c-2-1-3.9-2.2-5.5-3.5C144.2,726,154.6,743.2,173.1,740.6z"/>
			<path class="st65" d="M143,691.8c0,0,5.5,17,19.4,19c0,0-8.5-3.1-13-12.5l1.3,1.2l-4.5-8.7l-0.4,4.4L143,691.8z"/>
		</g>
		<g>
			<polygon class="st65" points="221,793.8 216.2,793.8 218.6,689.3 221,689.3 			"/>
			<path class="st65" d="M220,699.7c0,0-1.7,8.4-9.3,11.2c0,0,1.3-4.6,1.2-5.6c0,0,3.3-2.3,5.5-7c0,0-3.4,4.2-5.4,5.2c0,0,1-1.5,1-3
				l2.3-2.6l-1.7,1.3l6.3-24.5c0,0,6.8,23.5,6.8,23.4s-5.6-6.8-7.1-5.4c-1.5,1.4,4,7.7,7.5,8.1c0,0,0.9,3.3,1.5,5.7
				c0,0-2.1,0.4-3.4-0.9c0,0,1.3,2.9,4.4,4.7c0,0,0.6,4.2,1.6,5.8c0,0-10.1-3.2-10.7-9.5C220,700.1,220,699.7,220,699.7z"/>
			<path class="st65" d="M217.7,770.8c0,0-6.4,12-22.1,15.9v-1.4c0,0,7.5-2.3,9.7-4.5c0,0-7.5,2.5-13.6,2.8c0,0,1.4-2.4,1.6-4.3
				c0,0,16.2-3.6,22.9-13.6c0,0-13.6,10.6-22.3,10.9c0,0,0.6-2.1,0.7-3.4c0,0,8-0.1,17.4-8.8c0,0-4.6,3.7-9.9,5.4
				c0,0,10.9-5.8,15.4-14l0.4-7.9c0,0-9.5,12.3-18.9,11.3l0.1-1.2c0,0,7-1,8.9-3.9c0,0-4.7,2.5-8.9,2.3c0,0,0.8-2.5,0.9-3.4
				c0,0,10.3-3.2,13.9-10.5l-6.8,4.8l1.2-2.6c0,0,8.7-6.1,10.3-11.9v-5.4c0,0-4.4,11.4-15.1,12.2c0,0,0.4-0.5,0.8-2.6
				c0,0,8.6-2.1,10.8-7.4l-0.1-1.2c0,0-4.9,6.2-10.2,6.2l0.5-2.5c0,0,4.6-0.5,6.5-4.4c0,0-3.1,2-5.6,2.3l0.5-2.1
				c0,0,6.2-1.3,6.4-4.6c0.3-3.2-5.2,2.7-5.2,2.7s1-0.5,0.7-4c0,0,7.7-3.4,10.3-9.1c0-0.1,0.1-0.1,0.1-0.2h2.5c0,0,3.6,7.4,10.9,8.4
				c0,0,0.5,2.9,1.3,4.2c0,0-3.3-0.3-6.2-2.1c0,0,1.7,2.8,5.8,4c0,0-1.3,0.5-2.3,0.1c0,0,1.8,2.6,4.6,3.5v0.9
				c0,0-12.1-5.5-15.3-10.3c0,0-0.7,2.8,0.9,5.8c1.5,2.8,8.9,10,15.4,9.2l0.5,1.4c0,0-7.1-0.3-9.7-2.3c0,0,4.2,4,10.1,4.1l0.6,3.2
				c0,0-4.2,0.7-6.7-1c0,0,2.4,4.8,6.7,5.6c0,0,0.5,1-0.5,0.8c-1.1-0.3-11.9-4.2-17.4-12.7c0,0,5.2,13,20.5,17.3
				c0,0,0.1,0.7,0.6,1.4c0,0-4.2-0.8-3.6,0.3c0.5,1,4.7,2.5,4.7,2.5s-0.5,1.2,0,2.8c0,0-12.3-3-16.9-8.8c0,0,4.2,7.3,15.8,9.7
				c0,0-0.3,1.7,0.5,3c0,0-16.4-1.3-22.2-13.8c0,0-1,13.9,16.9,15.6c0,0-4.7,1.5-10-0.9c0,0,4.9,5.2,17.8,4.5c0,0,0.1,1.9,1.4,2.4
				c0,0-5.1,1.6-8.1,1.2c0,0,3.4,2.3,8.8,3.2v1.3c0,0-11.5,0-15.4-2.3c0,0,5.3,5.9,13.3,5.9c0,0-0.9,1.9-2.9,1.7
				c-2.1-0.1-14-3.2-19.3-11.9c0,0,3.4,9.3,11.1,11.7c0,0-9.9-3.2-12.4-7.1c0,0,5.8,8.9,16.9,11.4l-0.1,1.4c0,0-11.1-2.4-16-9.1
				c0,0,3.9,5.2,7.1,6.8c0,0-7.7-0.9-9.3-6.6C217,772.8,217.7,770.8,217.7,770.8z"/>
			<g>
				<g>
					<path class="st65" d="M231.6,781.8c0.2,0.1,0.5,0.1,0.7,0.3C232.2,782,232,782,231.6,781.8z"/>
					<path class="st65" d="M232.3,782.1c0.1,0.1,0.2,0.1,0.2,0.1C232.4,782.1,232.4,782.1,232.3,782.1z"/>
					<path class="st65" d="M245,771.3c-1.3-0.5-1.4-2.4-1.4-2.4c-12.8,0.7-17.8-4.5-17.8-4.5c5.3,2.4,10,0.9,10,0.9
						c-11.1-1.1-15-6.8-16.3-11l0,0c-1.5-2.3-1.9-6.5-1.9-6.5l-0.4,7.9c-4.5,8.2-15.4,14-15.4,14c5.4-1.7,9.9-5.4,9.9-5.4
						c-9.4,8.7-17.3,8.8-17.3,8.8c-0.1,1.4-0.7,3.4-0.7,3.4c8.7-0.3,22.3-10.9,22.3-10.9c-6.8,10.1-22.9,13.6-22.9,13.6
						c-0.2,1.9-1.6,4.3-1.6,4.3c6.2-0.3,13.6-2.8,13.6-2.8c-2.1,2.1-9.7,4.5-9.7,4.5v1.4c15.7-3.9,22.1-15.9,22.1-15.9
						s-0.7,2.1,1,7.9c1.6,5.8,9.3,6.6,9.3,6.6c-2.5-1.2-5.4-4.6-6.6-6.1c5.2,6.2,15.5,8.5,15.5,8.5l0.1-1.4
						C225.7,783.9,220,775,220,775c2.1,3.2,9.1,6,11.6,6.9c-7.1-2.7-10.3-11.4-10.3-11.4c5.3,8.8,17.2,11.8,19.3,11.9
						c2.1,0.1,2.9-1.7,2.9-1.7c-8,0-13.3-5.9-13.3-5.9c4,2.3,15.4,2.3,15.4,2.3v-1.3c-5.4-0.9-8.8-3.2-8.8-3.2
						C239.9,772.9,245,771.3,245,771.3z M221.2,779c-0.3-0.3-0.4-0.5-0.4-0.5C220.9,778.7,221,778.9,221.2,779z"/>
				</g>
			</g>
			<path class="st65" d="M231.6,781.8c0.2,0.1,0.5,0.1,0.7,0.3C232.2,782,232,782,231.6,781.8z"/>
			<path class="st65" d="M232.3,782.1c0.1,0.1,0.2,0.1,0.2,0.1C232.4,782.1,232.4,782.1,232.3,782.1z"/>
			<path class="st65" d="M221.2,779c-0.3-0.3-0.4-0.5-0.4-0.5C220.9,778.7,221,778.9,221.2,779z"/>
			<path class="st65" d="M231.6,781.8c0.2,0.1,0.5,0.1,0.7,0.3C232.2,782,232,782,231.6,781.8z"/>
			<path class="st65" d="M232.3,782.1c0.1,0.1,0.2,0.1,0.2,0.1C232.4,782.1,232.4,782.1,232.3,782.1z"/>
			<path class="st65" d="M231.6,781.8c0.2,0.1,0.5,0.1,0.7,0.3C232.2,782,232,782,231.6,781.8z"/>
			<path class="st65" d="M232.3,782.1c0.1,0.1,0.2,0.1,0.2,0.1C232.4,782.1,232.4,782.1,232.3,782.1z"/>
			<path class="st65" d="M221.2,779c-0.3-0.3-0.4-0.5-0.4-0.5C220.9,778.7,221,778.9,221.2,779z"/>
			<path class="st65" d="M220.7,692.5c2.2,0.7,6.1,5.4,6.1,5.5c0,0.1-0.4-1.3-1-3.3C223.2,692.9,220.7,692.5,220.7,692.5
				L220.7,692.5z"/>
			<path class="st65" d="M217.7,697.8c-2.1,2.6-4.2,3.6-4.8,3.8c-0.3,1.1-0.9,1.9-0.9,1.9c2.1-1,5.4-5.2,5.4-5.2
				c-2.2,4.7-5.5,7-5.5,7c0.1,0.3,0,0.8-0.1,1.5C216.5,704,217.7,697.8,217.7,697.8z"/>
			<path class="st65" d="M220.5,706.4c0.1,1.1,0.5,2.1,1.1,3c-1.2-5.2-0.7-14.4-1.4-10.6c-0.8,5-7.8,10.1-7.8,10.1V706l-0.5,0.5
				c-0.3,1.7-1.1,4.4-1.1,4.4c7.5-2.8,9.3-11.2,9.3-11.2S220,700.1,220.5,706.4z"/>
			<path class="st65" d="M231.2,716c-0.7-1.1-1.2-3.6-1.4-4.8c-5-2-5.7-6.6-5.7-6.6c1,1.1,1.2,1.1,1.3,1.1c0-0.1,0-0.1,0-0.1
				c1.3,1.2,3.4,0.9,3.4,0.9v-0.1c-3.4,0.5-8.1-7.1-8.1-7.1l-0.2,1.1l0.6,8.1C223.1,713.4,231.2,716,231.2,716z"/>
			<path class="st65" d="M226.1,720.1c0.1,0.1,2.7,3.6,6.4,5.2c0.5,0.1,0.7,0.1,0.7,0.1c-0.8-1.3-1.3-4.2-1.3-4.2
				c-2.3-0.3-4.2-1.3-5.7-2.4h-0.5l1.6,1.6L226.1,720.1z"/>
			<path class="st65" d="M235.2,730.9c-2.8-0.9-4.6-3.5-4.6-3.5c1,0.3,2.3-0.1,2.3-0.1c-1.8-0.5-3.1-1.3-4-2.1
				c-3.6-2-5.1-4.8-5.1-4.8c0.3,1,0.7,1.9,0.7,1.9c-1.2-0.7-2.1-4-2.1-4c0.2,2.9,2.1,5,2.1,5c-2.1-1.3-2.8-4.2-2.8-4.2
				c0.5,2.4,1.3,4.4,2.2,6.1c4.8,3.5,11.4,6.6,11.4,6.6V730.9z"/>
			<path class="st65" d="M215.5,730.3c0,0-2.8,4.8-6.2,6.2c-3.4,1.4-5,1.2-4.7,0.5c0.3-0.7,3.6,0.2,6.6-2.6
				C214,731.7,215.6,729.6,215.5,730.3z"/>
			<g>
				<path class="st65" d="M212,722.3l2.5-2.8l-3.6,1.1c-1.5,0.9-2.6,1.4-2.6,1.4c0.1,2.4-0.2,3.4-0.5,3.8
					C208.5,725,210.7,722.7,212,722.3z"/>
				<path class="st65" d="M207.7,725.7c-0.1,0.1-0.3,0.3-0.3,0.3S207.5,725.9,207.7,725.7z"/>
			</g>
			<path class="st65" d="M212,731c2.3-3.2,2.5-6.7,2.5-6.7c-3.6,8.8-9.6,7.6-9.6,7.6l-0.5,2.5C207.3,734.5,210,732.6,212,731z"/>
			<path class="st65" d="M219.4,713.3c0,0-2.6,3-1.6,2.8c1-0.1,3.1-1.3,2.8-2.1C220.3,713.3,220,712.7,219.4,713.3z"/>
			<path class="st65" d="M223.7,734.8c0.9,2.3,2.5,5.3,2.5,5.3c-3.2-1.7-4.8-5.7-4.8-5.7c0.9,2.6,2.6,5.3,4.1,7.3
				c5.2,4.2,10.9,6.3,11.7,6.4c0.8,0.2,0.7-0.4,0.6-0.7c-6.7-1.6-9.8-7.9-9.8-7.9c3,2.1,8.9,1.1,8.9,1.1
				C227,740.5,223.7,734.8,223.7,734.8z"/>
			<path class="st65" d="M198.8,756.3c0.1,0,0.3,0,0.4,0c11.7-1.7,16.4-13.7,16.4-13.7c-1.1,2-3.3,3.2-5.2,4
				c-4.4,4.2-10.6,6.2-10.6,6.2C199.6,753.9,198.8,756.3,198.8,756.3z"/>
			<path class="st65" d="M218.6,746.5c0.7,2.9,2,5.7,3.4,7.9c7.1,8.1,19.1,9.1,19.1,9.1c-0.8-1.3-0.5-3-0.5-3
				c-11.6-2.4-15.8-9.7-15.8-9.7c4.6,5.8,16.9,8.8,16.9,8.8c-0.1-0.1-0.1-0.3-0.1-0.4c-8.8-2.6-15-8.3-15-8.3c2.3,1.5,8.5,0,8.5,0
				c-12.5-2.1-15.5-6.6-15.5-6.6c1.9,7.2,7.6,11.4,7.6,11.4C222.4,753.2,218.6,746.5,218.6,746.5z"/>
			<path class="st65" d="M243.6,768.9c-8.5,0.5-13.4-1.6-15.9-3.1l0,0c0,0,4.1,4.6,10.5,6.8c3-0.1,6.8-1.3,6.8-1.3
				C243.7,770.8,243.6,768.9,243.6,768.9z"/>
			<g>
				<path class="st65" d="M206.7,776.9c5.2-2.8,9.1-10.9,9.1-10.9l0,0c-2.7,3.9-6.9,6.9-10.9,8.9l0,0l0,0c-6,3.2-11.8,4.4-11.8,4.4
					c-0.2,1.9-1.6,4.3-1.6,4.3c2.2-0.1,4.6-0.5,6.7-0.9c7.9-2.5,13.5-8.3,15.1-10.1C211.3,774.7,206.7,776.9,206.7,776.9z"/>
				<path class="st65" d="M213.3,772.6c0.2-0.2,0.3-0.4,0.5-0.5C213.8,772.1,213.6,772.3,213.3,772.6z"/>
			</g>
			<path class="st65" d="M219.6,761.5c0,0-0.1,8.9,11,12.3c0,0-5.7-2.3-7.1-5.4c0,0,2.4,2.4,5,2.8
				C228.4,771.2,221.9,767.3,219.6,761.5z"/>
			<path class="st65" d="M221.5,778.1c0,0,7.4,5.5,14.8,6.1c0,0-10.9,0.5-15.6-4.4c0,0,1.3,1.1,3.2,1.1
				C224.1,780.9,222.8,780.6,221.5,778.1z"/>
			<path class="st65" d="M217.6,757.7c0,0-2.4,7.2-9.1,10.7c0,0,5.2-1.6,7.3-4.6c0,0-0.8,1.5-1.5,2.3
				C214.3,766,217.3,764,217.6,757.7z"/>
			<path class="st65" d="M235.8,765.4c-7.3-0.7-11.5-3.5-13.9-6.5c-1.2-0.6-2.3-1.3-3.3-2.1C218.5,756.6,224.7,766.9,235.8,765.4z"
				/>
			<path class="st65" d="M217.7,736.1c0,0,3.3,10.2,11.7,11.4c0,0-5.1-1.9-7.8-7.5l0.8,0.7l-2.7-5.2l-0.3,2.6L217.7,736.1z"/>
		</g>
	</g>
	<g class="st8">
		<polygon class="st65" points="1519.3,835.8 1512.8,835.8 1516,693.5 1519.3,693.5 		"/>
		<path class="st65" d="M1518,707.7c0,0-2.3,11.4-12.6,15.2c0,0,1.8-6.3,1.6-7.7c0,0,4.5-3.2,7.5-9.6c0,0-4.6,5.7-7.4,7
			c0,0,1.4-2,1.4-4.1l3.2-3.6l-2.3,1.7l8.6-33.3c0,0,9.2,32,9.2,31.8s-7.7-9.2-9.6-7.4c-2.1,1.9,5.4,10.5,10.2,11c0,0,1.3,4.5,2,7.8
			c0,0-2.9,0.5-4.6-1.2c0,0,1.8,4,5.9,6.4c0,0,0.8,5.7,2.2,7.8c0,0-13.8-4.4-14.5-13C1517.9,708.3,1518,707.7,1518,707.7z"/>
		<path class="st65" d="M1514.8,804.4c0,0-8.7,16.3-30.1,21.6v-1.9c0,0,10.2-3.2,13.2-6.1c0,0-10.2,3.4-18.6,3.9
			c0,0,1.9-3.3,2.2-5.9c0,0,22-4.9,31.2-18.6c0,0-18.6,14.4-30.4,14.9c0,0,0.8-2.8,0.9-4.7c0,0,10.9-0.1,23.7-12c0,0-6.2,5-13.5,7.3
			c0,0,14.9-7.9,21-19.1l0.5-10.7c0,0-13,16.8-25.8,15.4l0.1-1.6c0,0,9.5-1.4,12.2-5.3c0,0-6.4,3.4-12.2,3.1c0,0,1.1-3.4,1.2-4.7
			c0,0,14-4.4,18.9-14.3l-9.2,6.5l1.6-3.6c0,0,11.9-8.3,14-16.2V745c0,0-6,15.5-20.5,16.7c0,0,0.5-0.6,1.1-3.6
			c0,0,11.7-2.9,14.7-10.1l-0.2-1.6c0,0-6.7,8.4-13.9,8.4l0.7-3.4c0,0,6.3-0.6,8.8-6c0,0-4.2,2.7-7.7,3.2l0.6-2.8
			c0,0,8.4-1.8,8.7-6.2c0.4-4.4-7.1,3.7-7.1,3.7s1.4-0.6,1-5.4c0,0,10.5-4.7,14.1-12.3c0-0.1,0.1-0.2,0.1-0.3h3.4
			c0,0,4.9,10.1,14.8,11.4c0,0,0.7,4,1.8,5.8c0,0-4.5-0.5-8.4-2.9c0,0,2.3,3.9,7.8,5.5c0,0-1.7,0.6-3.2,0.1c0,0,2.4,3.5,6.3,4.8v1.2
			c0,0-16.5-7.5-20.8-14.1c0,0-0.9,3.9,1.2,7.8c2.1,3.9,12.1,13.6,20.9,12.5l0.6,1.9c0,0-9.6-0.4-13.2-3.2c0,0,5.7,5.5,13.7,5.6
			l0.8,4.4c0,0-5.7,0.9-9.1-1.4c0,0,3.3,6.5,9.1,7.7c0,0,0.7,1.4-0.7,1.1c-1.4-0.4-16.1-5.7-23.7-17.3c0,0,7,17.7,27.9,23.6
			c0,0,0.1,1,0.8,1.9c0,0-5.7-1.1-5,0.4c0.6,1.4,6.4,3.4,6.4,3.4s-0.6,1.6,0,3.8c0,0-16.8-4.1-23.1-12c0,0,5.7,9.9,21.4,13.2
			c0,0-0.5,2.3,0.6,4.1c0,0-22.3-1.8-30.3-18.8c0,0-1.4,18.9,23.1,21.3c0,0-6.4,2-13.6-1.3c0,0,6.7,7.1,24.2,6.1
			c0,0,0.2,2.5,1.9,3.2c0,0-6.9,2.2-11.1,1.6c0,0,4.7,3.2,12,4.4v1.7c0,0-15.6,0-21-3.1c0,0,7.2,8,18.1,8c0,0-1.2,2.6-4,2.3
			c-2.8-0.2-19-4.3-26.2-16.2c0,0,4.7,12.7,15.1,16c0,0-13.4-4.4-16.9-9.7c0,0,7.8,12.2,23,15.5l-0.1,1.9c0,0-15.1-3.3-21.8-12.4
			c0,0,5.3,7.1,9.6,9.2c0,0-10.5-1.2-12.7-9C1513.9,807.2,1514.8,804.4,1514.8,804.4z"/>
		<g>
			<g>
				<path class="st65" d="M1533.8,819.5c0.3,0.1,0.6,0.2,0.9,0.4C1534.5,819.8,1534.2,819.7,1533.8,819.5z"/>
				<path class="st65" d="M1534.7,819.9c0.2,0.1,0.3,0.1,0.3,0.1C1534.9,819.9,1534.8,819.9,1534.7,819.9z"/>
				<path class="st65" d="M1552,805.2c-1.7-0.7-1.9-3.2-1.9-3.2c-17.5,1-24.2-6.1-24.2-6.1c7.2,3.2,13.6,1.3,13.6,1.3
					c-15.1-1.4-20.4-9.2-22.2-15l0,0c-2-3.1-2.6-8.8-2.6-8.8l-0.5,10.7c-6.1,11.2-21,19.1-21,19.1c7.3-2.3,13.5-7.3,13.5-7.3
					c-12.8,11.9-23.6,12-23.6,12c-0.1,1.9-0.9,4.7-0.9,4.7c11.8-0.4,30.4-14.9,30.4-14.9c-9.2,13.7-31.2,18.6-31.2,18.6
					c-0.3,2.5-2.2,5.9-2.2,5.9c8.4-0.4,18.6-3.9,18.6-3.9c-2.9,2.9-13.2,6.1-13.2,6.1v1.9c21.4-5.3,30.1-21.6,30.1-21.6
					s-0.9,2.8,1.4,10.7c2.2,7.9,12.7,9,12.7,9c-3.4-1.6-7.4-6.3-9-8.3c7,8.5,21.1,11.5,21.1,11.5l0.1-1.9c-15.1-3.3-23-15.5-23-15.5
					c2.9,4.4,12.4,8.1,15.8,9.4c-9.6-3.7-14-15.5-14-15.5c7.2,12,23.4,16,26.2,16.2c2.8,0.2,4-2.3,4-2.3c-10.9,0-18.1-8-18.1-8
					c5.4,3.1,21,3.1,21,3.1v-1.7c-7.3-1.3-12-4.4-12-4.4C1545.1,807.3,1552,805.2,1552,805.2z M1519.5,815.6
					c-0.4-0.4-0.5-0.6-0.5-0.6C1519.2,815.3,1519.4,815.4,1519.5,815.6z"/>
			</g>
		</g>
		<path class="st65" d="M1533.8,819.5c0.3,0.1,0.6,0.2,0.9,0.4C1534.5,819.8,1534.2,819.7,1533.8,819.5z"/>
		<path class="st65" d="M1534.7,819.9c0.2,0.1,0.3,0.1,0.3,0.1C1534.9,819.9,1534.8,819.9,1534.7,819.9z"/>
		<path class="st65" d="M1519.5,815.6c-0.4-0.4-0.5-0.6-0.5-0.6C1519.2,815.3,1519.4,815.4,1519.5,815.6z"/>
		<path class="st65" d="M1533.8,819.5c0.3,0.1,0.6,0.2,0.9,0.4C1534.5,819.8,1534.2,819.7,1533.8,819.5z"/>
		<path class="st65" d="M1534.7,819.9c0.2,0.1,0.3,0.1,0.3,0.1C1534.9,819.9,1534.8,819.9,1534.7,819.9z"/>
		<path class="st65" d="M1533.8,819.5c0.3,0.1,0.6,0.2,0.9,0.4C1534.5,819.8,1534.2,819.7,1533.8,819.5z"/>
		<path class="st65" d="M1534.7,819.9c0.2,0.1,0.3,0.1,0.3,0.1C1534.9,819.9,1534.8,819.9,1534.7,819.9z"/>
		<path class="st65" d="M1519.5,815.6c-0.4-0.4-0.5-0.6-0.5-0.6C1519.2,815.3,1519.4,815.4,1519.5,815.6z"/>
		<path class="st65" d="M1518.9,697.8c3,1,8.3,7.3,8.3,7.5c0,0.1-0.5-1.7-1.4-4.5C1522.3,698.4,1518.9,697.8,1518.9,697.8
			L1518.9,697.8z"/>
		<path class="st65" d="M1514.9,705c-2.9,3.6-5.8,4.9-6.6,5.1c-0.4,1.4-1.2,2.6-1.2,2.6c2.8-1.4,7.4-7,7.4-7c-3,6.4-7.5,9.6-7.5,9.6
			c0.1,0.4,0,1.1-0.2,2C1513.2,713.6,1514.9,705,1514.9,705z"/>
		<path class="st65" d="M1518.6,716.8c0.1,1.5,0.6,2.9,1.4,4.1c-1.6-7.1-1-19.6-1.9-14.4c-1.1,6.8-10.6,13.7-10.6,13.7v-3.9
			l-0.7,0.7c-0.5,2.3-1.4,5.9-1.4,5.9c10.3-3.8,12.6-15.2,12.6-15.2S1517.9,708.3,1518.6,716.8z"/>
		<path class="st65" d="M1533.2,729.8c-0.9-1.5-1.6-4.9-1.9-6.6c-6.8-2.7-7.8-8.9-7.8-8.9c1.4,1.5,1.6,1.4,1.7,1.4
			c0-0.1,0-0.1,0-0.1c1.7,1.6,4.6,1.2,4.6,1.2v-0.1c-4.6,0.7-11-9.7-11-9.7l-0.3,1.4l0.8,11.1
			C1522.2,726.3,1533.2,729.8,1533.2,729.8z"/>
		<path class="st65" d="M1526.3,735.4c0.1,0.1,3.7,5,8.7,7c0.6,0.1,1,0.2,1,0.2c-1.1-1.8-1.8-5.8-1.8-5.8c-3.1-0.5-5.7-1.7-7.8-3.2
			h-0.7l2.2,2.2L1526.3,735.4z"/>
		<path class="st65" d="M1538.7,750.1c-3.9-1.3-6.3-4.8-6.3-4.8c1.4,0.5,3.2-0.1,3.2-0.1c-2.4-0.7-4.2-1.8-5.5-2.9
			c-5-2.7-6.9-6.6-6.9-6.6c0.4,1.4,1,2.6,1,2.6c-1.6-1-2.9-5.5-2.9-5.5c0.3,4,2.9,6.8,2.9,6.8c-2.8-1.8-3.9-5.8-3.9-5.8
			c0.7,3.3,1.8,6,3,8.3c6.5,4.8,15.5,8.9,15.5,8.9V750.1z"/>
		<path class="st65" d="M1511.9,749.4c0,0-3.9,6.6-8.5,8.5c-4.7,1.9-6.8,1.6-6.4,0.7s4.9,0.3,8.9-3.6
			C1509.8,751.2,1512,748.4,1511.9,749.4z"/>
		<g>
			<path class="st65" d="M1507,738.5l3.4-3.8l-5,1.4c-2.1,1.3-3.6,1.9-3.6,1.9c0.2,3.2-0.3,4.6-0.6,5.1
				C1502.2,742.1,1505.3,738.9,1507,738.5z"/>
			<path class="st65" d="M1501.2,743.1c-0.2,0.2-0.4,0.4-0.4,0.4S1501,743.3,1501.2,743.1z"/>
		</g>
		<path class="st65" d="M1507,750.3c3.2-4.3,3.4-9.1,3.4-9.1c-4.9,12-13.1,10.4-13.1,10.4l-0.7,3.4
			C1500.6,755.1,1504.4,752.5,1507,750.3z"/>
		<path class="st65" d="M1517.1,726.2c0,0-3.5,4.1-2.2,3.9c1.4-0.1,4.2-1.7,3.9-2.8C1518.4,726.1,1517.9,725.4,1517.1,726.2z"/>
		<path class="st65" d="M1523,755.5c1.3,3.1,3.4,7.2,3.4,7.2c-4.3-2.3-6.6-7.8-6.6-7.8c1.3,3.5,3.6,7.2,5.6,9.9
			c7.1,5.8,14.8,8.6,15.9,8.7c1.1,0.3,1-0.5,0.8-0.9c-9.1-2.2-13.3-10.7-13.3-10.7c4.1,2.8,12.2,1.4,12.2,1.4
			C1527.5,763.2,1523,755.5,1523,755.5z"/>
		<path class="st65" d="M1489.1,784.8c0.2,0,0.4,0,0.5,0c15.9-2.3,22.3-18.7,22.3-18.7c-1.4,2.7-4.5,4.4-7.1,5.5
			c-6,5.8-14.4,8.5-14.4,8.5C1490.2,781.5,1489.1,784.8,1489.1,784.8z"/>
		<path class="st65" d="M1516,771.4c0.9,4,2.7,7.8,4.6,10.8c9.7,11.1,26,12.3,26,12.3c-1.1-1.8-0.6-4.1-0.6-4.1
			c-15.8-3.2-21.4-13.2-21.4-13.2c6.3,7.9,23.1,12,23.1,12c-0.1-0.2-0.1-0.4-0.2-0.5c-12-3.5-20.5-11.4-20.5-11.4
			c3.2,2.1,11.5,0,11.5,0c-17-2.8-21.1-8.9-21.1-8.9c2.6,9.8,10.4,15.5,10.4,15.5C1521.3,780.5,1516,771.4,1516,771.4z"/>
		<path class="st65" d="M1550.1,801.9c-11.5,0.6-18.3-2.2-21.6-4.2l0,0c0,0,5.6,6.2,14.3,9.2c4.1-0.1,9.2-1.7,9.2-1.7
			C1550.3,804.4,1550.1,801.9,1550.1,801.9z"/>
		<g>
			<path class="st65" d="M1499.8,812.8c7.1-3.8,12.4-14.9,12.4-14.9l0,0c-3.7,5.3-9.4,9.4-14.9,12.2l0,0l0,0c-8.2,4.3-16,6-16,6
				c-0.3,2.5-2.2,5.9-2.2,5.9c3-0.2,6.2-0.6,9.1-1.3c10.7-3.4,18.4-11.3,20.5-13.7C1506.1,809.8,1499.8,812.8,1499.8,812.8z"/>
			<path class="st65" d="M1508.8,807c0.3-0.3,0.5-0.5,0.6-0.7C1509.5,806.2,1509.3,806.5,1508.8,807z"/>
		</g>
		<path class="st65" d="M1517.4,791.8c0,0-0.1,12.2,15,16.8c0,0-7.8-3.1-9.6-7.3c0,0,3.2,3.2,6.8,3.8
			C1529.4,805.1,1520.5,799.7,1517.4,791.8z"/>
		<path class="st65" d="M1520,814.4c0,0,10.1,7.5,20.2,8.3c0,0-14.8,0.7-21.2-5.9c0,0,1.8,1.5,4.4,1.5
			C1523.5,818.2,1521.7,817.8,1520,814.4z"/>
		<path class="st65" d="M1514.7,786.6c0,0-3.3,9.8-12.4,14.6c0,0,7.1-2.2,9.9-6.3c0,0-1.1,2-2,3.1
			C1510.3,798,1514.2,795.3,1514.7,786.6z"/>
		<path class="st65" d="M1539.5,797.1c-10-1-15.7-4.8-18.9-8.8c-1.6-0.8-3.2-1.8-4.5-2.9C1515.9,785.2,1524.3,799.2,1539.5,797.1z"
			/>
		<path class="st65" d="M1514.9,757.2c0,0,4.5,13.9,15.9,15.5c0,0-6.9-2.5-10.6-10.2l1.1,1l-3.7-7.1l-0.4,3.6L1514.9,757.2z"/>
	</g>
	<g class="st8">
		<polygon class="st65" points="1606.3,816.8 1598.3,816.8 1602.3,642.5 1606.3,642.5 		"/>
		<path class="st65" d="M1604.7,660c0,0-2.9,14-15.5,18.7c0,0,2.2-7.7,2-9.4c0,0,5.5-3.9,9.2-11.7c0,0-5.6,7-9,8.6
			c0,0,1.7-2.4,1.7-5.1l3.9-4.4l-2.8,2.1l10.5-40.8c0,0,11.3,39.2,11.3,39c0-0.2-9.4-11.3-11.8-9c-2.5,2.3,6.6,12.9,12.5,13.5
			c0,0,1.5,5.5,2.4,9.5c0,0-3.5,0.7-5.6-1.4c0,0,2.2,4.9,7.3,7.8c0,0,1,7,2.6,9.6c0,0-16.9-5.4-17.8-15.9
			C1604.6,660.6,1604.7,660,1604.7,660z"/>
		<path class="st65" d="M1600.8,778.4c0,0-10.7,20-36.9,26.5v-2.3c0,0,12.5-3.9,16.1-7.5c0,0-12.5,4.2-22.7,4.7c0,0,2.3-4.1,2.6-7.2
			c0,0,26.9-6,38.2-22.7c0,0-22.7,17.7-37.2,18.2c0,0,1-3.4,1.1-5.7c0,0,13.4-0.1,29-14.7c0,0-7.6,6.2-16.6,8.9
			c0,0,18.2-9.7,25.7-23.4l0.7-13.1c0,0-15.9,20.5-31.6,18.9l0.1-2c0,0,11.6-1.7,14.9-6.5c0,0-7.8,4.2-14.9,3.8c0,0,1.3-4.2,1.4-5.7
			c0,0,17.1-5.4,23.2-17.5l-11.3,7.9l2-4.4c0,0,14.6-10.2,17.1-19.9v-9c0,0-7.4,19-25.2,20.4c0,0,0.7-0.8,1.3-4.4
			c0,0,14.3-3.5,18-12.4l-0.2-2c0,0-8.2,10.3-17,10.3l0.9-4.2c0,0,7.7-0.8,10.8-7.4c0,0-5.2,3.3-9.4,3.9l0.8-3.4
			c0,0,10.3-2.2,10.7-7.6s-8.7,4.5-8.7,4.5s1.7-0.8,1.2-6.6c0,0,12.8-5.7,17.2-15.1c0-0.1,0.1-0.2,0.1-0.3h4.2c0,0,6,12.4,18.1,14
			c0,0,0.9,4.9,2.2,7.1c0,0-5.5-0.6-10.3-3.5c0,0,2.8,4.7,9.6,6.7c0,0-2.1,0.8-3.9,0.1c0,0,3,4.3,7.7,5.8v1.4
			c0,0-20.2-9.2-25.5-17.2c0,0-1.1,4.7,1.4,9.6c2.5,4.7,14.8,16.7,25.6,15.3l0.8,2.3c0,0-11.8-0.4-16.1-3.9c0,0,7,6.7,16.8,6.8
			l1,5.4c0,0-7,1.1-11.1-1.7c0,0,4.1,7.9,11.1,9.4c0,0,0.9,1.7-0.9,1.3c-1.8-0.4-19.8-7-29-21.2c0,0,8.6,21.6,34.2,28.9
			c0,0,0.1,1.2,1,2.3c0,0-7-1.3-6.1,0.4c0.8,1.7,7.8,4.2,7.8,4.2s-0.8,2,0,4.6c0,0-20.5-5-28.3-14.7c0,0,7,12.1,26.3,16.1
			c0,0-0.6,2.8,0.8,5c0,0-27.3-2.2-37.1-23.1c0,0-1.7,23.2,28.3,26c0,0-7.8,2.4-16.7-1.5c0,0,8.2,8.7,29.7,7.5c0,0,0.2,3.1,2.3,4
			c0,0-8.5,2.6-13.6,2c0,0,5.7,3.9,14.7,5.4v2.1c0,0-19.1,0-25.7-3.8c0,0,8.8,9.8,22.2,9.8c0,0-1.4,3.2-4.9,2.9
			c-3.4-0.2-23.3-5.3-32.1-19.9c0,0,5.7,15.6,18.5,19.5c0,0-16.4-5.4-20.7-11.9c0,0,9.6,14.9,28.1,19l-0.1,2.3
			c0,0-18.5-4.1-26.7-15.2c0,0,6.5,8.7,11.8,11.3c0,0-12.8-1.4-15.6-11C1599.7,781.8,1600.8,778.4,1600.8,778.4z"/>
		<g>
			<g>
				<path class="st65" d="M1624.1,796.8c0.3,0.1,0.8,0.2,1.1,0.4C1624.9,797.1,1624.6,797,1624.1,796.8z"/>
				<path class="st65" d="M1625.2,797.3c0.2,0.1,0.3,0.1,0.3,0.1C1625.4,797.3,1625.3,797.3,1625.2,797.3z"/>
				<path class="st65" d="M1646.3,779.3c-2.1-0.9-2.3-4-2.3-4c-21.4,1.2-29.7-7.5-29.7-7.5c8.8,4,16.7,1.5,16.7,1.5
					c-18.4-1.8-24.9-11.3-27.1-18.3l0,0c-2.4-3.8-3.2-10.8-3.2-10.8l-0.7,13.1c-7.5,13.7-25.7,23.4-25.7,23.4
					c8.9-2.8,16.6-8.9,16.6-8.9c-15.7,14.6-28.9,14.7-28.9,14.7c-0.1,2.3-1.1,5.7-1.1,5.7c14.5-0.4,37.2-18.2,37.2-18.2
					c-11.3,16.8-38.2,22.7-38.2,22.7c-0.3,3.1-2.6,7.2-2.6,7.2c10.3-0.4,22.7-4.7,22.7-4.7c-3.5,3.5-16.1,7.5-16.1,7.5v2.3
					c26.2-6.5,36.9-26.5,36.9-26.5s-1.1,3.4,1.7,13.1c2.6,9.7,15.6,11,15.6,11c-4.2-2-9-7.7-11-10.2c8.6,10.4,25.8,14.1,25.8,14.1
					l0.1-2.3c-18.5-4.1-28.1-19-28.1-19c3.5,5.4,15.2,9.9,19.3,11.5c-11.8-4.5-17.1-19-17.1-19c8.8,14.7,28.7,19.6,32.1,19.9
					c3.4,0.2,4.9-2.9,4.9-2.9c-13.4,0-22.2-9.8-22.2-9.8c6.6,3.8,25.7,3.8,25.7,3.8v-2.1c-8.9-1.5-14.7-5.4-14.7-5.4
					C1637.9,781.9,1646.3,779.3,1646.3,779.3z M1606.6,792.1c-0.4-0.4-0.7-0.8-0.7-0.8C1606.2,791.6,1606.4,791.8,1606.6,792.1z"/>
			</g>
		</g>
		<path class="st65" d="M1624.1,796.8c0.3,0.1,0.8,0.2,1.1,0.4C1624.9,797.1,1624.6,797,1624.1,796.8z"/>
		<path class="st65" d="M1625.2,797.3c0.2,0.1,0.3,0.1,0.3,0.1C1625.4,797.3,1625.3,797.3,1625.2,797.3z"/>
		<path class="st65" d="M1606.6,792.1c-0.4-0.4-0.7-0.8-0.7-0.8C1606.2,791.6,1606.4,791.8,1606.6,792.1z"/>
		<path class="st65" d="M1624.1,796.8c0.3,0.1,0.8,0.2,1.1,0.4C1624.9,797.1,1624.6,797,1624.1,796.8z"/>
		<path class="st65" d="M1625.2,797.3c0.2,0.1,0.3,0.1,0.3,0.1C1625.4,797.3,1625.3,797.3,1625.2,797.3z"/>
		<path class="st65" d="M1624.1,796.8c0.3,0.1,0.8,0.2,1.1,0.4C1624.9,797.1,1624.6,797,1624.1,796.8z"/>
		<path class="st65" d="M1625.2,797.3c0.2,0.1,0.3,0.1,0.3,0.1C1625.4,797.3,1625.3,797.3,1625.2,797.3z"/>
		<path class="st65" d="M1606.6,792.1c-0.4-0.4-0.7-0.8-0.7-0.8C1606.2,791.6,1606.4,791.8,1606.6,792.1z"/>
		<path class="st65" d="M1605.8,647.8c3.6,1.2,10.2,8.9,10.2,9.2c0,0.1-0.7-2.1-1.7-5.5C1610,648.5,1605.8,647.8,1605.8,647.8
			L1605.8,647.8z"/>
		<path class="st65" d="M1600.9,656.7c-3.5,4.4-7.1,6-8.1,6.3c-0.4,1.8-1.4,3.2-1.4,3.2c3.4-1.7,9-8.6,9-8.6
			c-3.6,7.8-9.2,11.7-9.2,11.7c0.1,0.4,0,1.3-0.2,2.4C1598.9,667.1,1600.9,656.7,1600.9,656.7z"/>
		<path class="st65" d="M1605.5,671.1c0.1,1.9,0.8,3.5,1.8,5c-2-8.7-1.2-24.1-2.3-17.7c-1.3,8.3-13,16.8-13,16.8v-4.7l-0.9,0.9
			c-0.6,2.9-1.8,7.3-1.8,7.3c12.6-4.6,15.5-18.7,15.5-18.7S1604.6,660.6,1605.5,671.1z"/>
		<path class="st65" d="M1623.3,687c-1.1-1.9-2-6-2.3-8.1c-8.3-3.3-9.5-10.9-9.5-10.9c1.7,1.9,2,1.8,2.1,1.8c0-0.1,0-0.1,0-0.1
			c2.1,2,5.6,1.4,5.6,1.4V671c-5.6,0.9-13.5-11.9-13.5-11.9l-0.3,1.8l1,13.6C1609.8,682.7,1623.3,687,1623.3,687z"/>
		<path class="st65" d="M1614.9,693.8c0.1,0.1,4.5,6.1,10.7,8.6c0.8,0.1,1.2,0.2,1.2,0.2c-1.3-2.2-2.2-7.1-2.2-7.1
			c-3.8-0.6-7-2.1-9.5-4h-0.9l2.6,2.6L1614.9,693.8z"/>
		<path class="st65" d="M1630,711.8c-4.7-1.5-7.7-5.8-7.7-5.8c1.7,0.6,3.9-0.1,3.9-0.1c-3-0.9-5.2-2.2-6.7-3.5
			c-6.1-3.3-8.5-8.1-8.5-8.1c0.4,1.7,1.2,3.2,1.2,3.2c-2-1.2-3.5-6.7-3.5-6.7c0.3,4.9,3.5,8.4,3.5,8.4c-3.4-2.2-4.7-7.1-4.7-7.1
			c0.9,4.1,2.2,7.4,3.6,10.2c7.9,5.8,19,10.9,19,10.9V711.8z"/>
		<path class="st65" d="M1597.2,711c0,0-4.7,8.1-10.4,10.4c-5.7,2.3-8.3,2-7.8,0.9c0.4-1.1,6,0.3,10.9-4.4
			C1594.7,713.2,1597.3,709.7,1597.2,711z"/>
		<g>
			<path class="st65" d="M1591.3,697.6l4.2-4.6l-6.1,1.8c-2.5,1.5-4.4,2.3-4.4,2.3c0.2,4-0.3,5.6-0.8,6.3
				C1585.4,702,1589.2,698.1,1591.3,697.6z"/>
			<path class="st65" d="M1584.1,703.2c-0.2,0.2-0.4,0.4-0.4,0.4S1583.9,703.6,1584.1,703.2z"/>
		</g>
		<path class="st65" d="M1591.3,712.1c3.9-5.3,4.2-11.1,4.2-11.1c-6,14.7-16,12.7-16,12.7l-0.9,4.2
			C1583.4,717.9,1588.1,714.8,1591.3,712.1z"/>
		<path class="st65" d="M1603.6,682.6c0,0-4.3,5-2.6,4.7c1.7-0.1,5.2-2.1,4.7-3.4C1605.2,682.5,1604.6,681.6,1603.6,682.6z"/>
		<path class="st65" d="M1610.8,718.5c1.5,3.8,4.2,8.8,4.2,8.8c-5.3-2.9-8.1-9.5-8.1-9.5c1.5,4.3,4.4,8.8,6.8,12.1
			c8.7,7.1,18.1,10.5,19.4,10.7c1.3,0.3,1.2-0.7,1-1.1c-11.1-2.6-16.3-13.1-16.3-13.1c5.1,3.4,14.9,1.8,14.9,1.8
			C1616.3,727.8,1610.8,718.5,1610.8,718.5z"/>
		<path class="st65" d="M1569.3,754.3c0.2,0,0.4,0,0.7,0c19.4-2.9,27.3-22.8,27.3-22.8c-1.8,3.3-5.5,5.4-8.7,6.7
			c-7.4,7.1-17.7,10.4-17.7,10.4C1570.6,750.2,1569.3,754.3,1569.3,754.3z"/>
		<path class="st65" d="M1602.3,737.9c1.1,4.9,3.3,9.5,5.6,13.2c11.9,13.6,31.9,15.1,31.9,15.1c-1.3-2.2-0.8-5-0.8-5
			c-19.3-4-26.3-16.1-26.3-16.1c7.7,9.7,28.3,14.7,28.3,14.7c-0.1-0.2-0.1-0.4-0.2-0.7c-14.7-4.3-25.1-13.9-25.1-13.9
			c3.9,2.5,14.1,0,14.1,0c-20.9-3.4-25.8-10.9-25.8-10.9c3.2,12,12.7,19,12.7,19C1608.7,749,1602.3,737.9,1602.3,737.9z"/>
		<path class="st65" d="M1644,775.3c-14.1,0.8-22.4-2.6-26.5-5.2l0,0c0,0,6.8,7.6,17.5,11.3c5-0.1,11.3-2.1,11.3-2.1
			C1644.3,778.4,1644,775.3,1644,775.3z"/>
		<g>
			<path class="st65" d="M1582.5,788.6c8.7-4.6,15.2-18.2,15.2-18.2l0,0c-4.5,6.5-11.5,11.5-18.2,14.9l0,0l0,0
				c-10,5.3-19.6,7.4-19.6,7.4c-0.3,3.1-2.6,7.2-2.6,7.2c3.6-0.2,7.6-0.8,11.1-1.5c13.1-4.2,22.5-13.8,25.2-16.8
				C1590.2,784.9,1582.5,788.6,1582.5,788.6z"/>
			<path class="st65" d="M1593.5,781.5c0.3-0.3,0.6-0.7,0.8-0.9C1594.3,780.6,1594,780.9,1593.5,781.5z"/>
		</g>
		<path class="st65" d="M1604,762.9c0,0-0.1,14.9,18.3,20.5c0,0-9.5-3.8-11.8-8.9c0,0,4,4,8.3,4.6
			C1618.6,779.2,1607.8,772.5,1604,762.9z"/>
		<path class="st65" d="M1607.2,790.6c0,0,12.4,9.2,24.7,10.2c0,0-18.1,0.9-25.9-7.3c0,0,2.2,1.9,5.4,1.9
			C1611.5,795.3,1609.3,794.7,1607.2,790.6z"/>
		<path class="st65" d="M1600.7,756.5c0,0-4.1,12-15.2,17.9c0,0,8.7-2.6,12.1-7.7c0,0-1.3,2.4-2.4,3.8
			C1595.3,770.4,1600.1,767.1,1600.7,756.5z"/>
		<path class="st65" d="M1631,769.3c-12.2-1.2-19.2-5.8-23.2-10.8c-2-1-3.9-2.2-5.5-3.5C1602.1,754.8,1612.5,772,1631,769.3z"/>
		<path class="st65" d="M1600.9,720.6c0,0,5.5,17,19.4,19c0,0-8.5-3.1-13-12.5l1.3,1.2l-4.5-8.7l-0.4,4.4L1600.9,720.6z"/>
	</g>
	<g class="st8">
		<polygon class="st65" points="1686.7,824.2 1682,824.2 1684.4,719.7 1686.7,719.7 		"/>
		<path class="st65" d="M1685.8,730.1c0,0-1.7,8.4-9.3,11.2c0,0,1.3-4.6,1.2-5.6c0,0,3.3-2.3,5.5-7c0,0-3.4,4.2-5.4,5.2
			c0,0,1-1.5,1-3l2.3-2.6l-1.7,1.3l6.3-24.5c0,0,6.8,23.5,6.8,23.4c0-0.1-5.6-6.8-7.1-5.4c-1.5,1.4,4,7.7,7.5,8.1
			c0,0,0.9,3.3,1.5,5.7c0,0-2.1,0.4-3.4-0.9c0,0,1.3,2.9,4.4,4.7c0,0,0.6,4.2,1.6,5.8c0,0-10.1-3.2-10.7-9.5
			C1685.7,730.5,1685.8,730.1,1685.8,730.1z"/>
		<path class="st65" d="M1683.4,801.2c0,0-6.4,12-22.1,15.9v-1.4c0,0,7.5-2.3,9.7-4.5c0,0-7.5,2.5-13.6,2.8c0,0,1.4-2.4,1.6-4.3
			c0,0,16.2-3.6,22.9-13.6c0,0-13.6,10.6-22.3,10.9c0,0,0.6-2.1,0.7-3.4c0,0,8-0.1,17.4-8.8c0,0-4.6,3.7-9.9,5.4
			c0,0,10.9-5.8,15.4-14l0.4-7.9c0,0-9.5,12.3-18.9,11.3l0.1-1.2c0,0,7-1,8.9-3.9c0,0-4.7,2.5-8.9,2.3c0,0,0.8-2.5,0.9-3.4
			c0,0,10.3-3.2,13.9-10.5l-6.8,4.8l1.2-2.6c0,0,8.7-6.1,10.3-11.9v-5.4c0,0-4.4,11.4-15.1,12.2c0,0,0.4-0.5,0.8-2.6
			c0,0,8.6-2.1,10.8-7.4l-0.1-1.2c0,0-4.9,6.2-10.2,6.2l0.5-2.5c0,0,4.6-0.5,6.5-4.4c0,0-3.1,2-5.6,2.3l0.5-2.1c0,0,6.2-1.3,6.4-4.6
			c0.3-3.2-5.2,2.7-5.2,2.7s1-0.5,0.7-4c0,0,7.7-3.4,10.3-9.1c0-0.1,0.1-0.1,0.1-0.2h2.5c0,0,3.6,7.4,10.9,8.4c0,0,0.5,2.9,1.3,4.2
			c0,0-3.3-0.3-6.2-2.1c0,0,1.7,2.8,5.8,4c0,0-1.3,0.5-2.3,0.1c0,0,1.8,2.6,4.6,3.5v0.9c0,0-12.1-5.5-15.3-10.3c0,0-0.7,2.8,0.9,5.8
			c1.5,2.8,8.9,10,15.4,9.2l0.5,1.4c0,0-7.1-0.3-9.7-2.3c0,0,4.2,4,10.1,4.1l0.6,3.2c0,0-4.2,0.7-6.7-1c0,0,2.4,4.8,6.7,5.6
			c0,0,0.5,1-0.5,0.8c-1.1-0.3-11.9-4.2-17.4-12.7c0,0,5.2,13,20.5,17.3c0,0,0.1,0.7,0.6,1.4c0,0-4.2-0.8-3.6,0.3
			c0.5,1,4.7,2.5,4.7,2.5s-0.5,1.2,0,2.8c0,0-12.3-3-16.9-8.8c0,0,4.2,7.3,15.8,9.7c0,0-0.3,1.7,0.5,3c0,0-16.4-1.3-22.2-13.8
			c0,0-1,13.9,16.9,15.6c0,0-4.7,1.5-10-0.9c0,0,4.9,5.2,17.8,4.5c0,0,0.1,1.9,1.4,2.4c0,0-5.1,1.6-8.1,1.2c0,0,3.4,2.3,8.8,3.2v1.3
			c0,0-11.5,0-15.4-2.3c0,0,5.3,5.9,13.3,5.9c0,0-0.9,1.9-2.9,1.7c-2.1-0.1-14-3.2-19.3-11.9c0,0,3.4,9.3,11.1,11.7
			c0,0-9.9-3.2-12.4-7.1c0,0,5.8,8.9,16.9,11.4l-0.1,1.4c0,0-11.1-2.4-16-9.1c0,0,3.9,5.2,7.1,6.8c0,0-7.7-0.9-9.3-6.6
			C1682.8,803.2,1683.4,801.2,1683.4,801.2z"/>
		<g>
			<g>
				<path class="st65" d="M1697.4,812.2c0.2,0.1,0.5,0.1,0.7,0.3C1697.9,812.4,1697.7,812.4,1697.4,812.2z"/>
				<path class="st65" d="M1698.1,812.5c0.1,0.1,0.2,0.1,0.2,0.1C1698.2,812.5,1698.1,812.5,1698.1,812.5z"/>
				<path class="st65" d="M1710.8,801.7c-1.3-0.5-1.4-2.4-1.4-2.4c-12.8,0.7-17.8-4.5-17.8-4.5c5.3,2.4,10,0.9,10,0.9
					c-11.1-1.1-15-6.8-16.3-11l0,0c-1.5-2.3-1.9-6.5-1.9-6.5l-0.4,7.9c-4.5,8.2-15.4,14-15.4,14c5.4-1.7,9.9-5.4,9.9-5.4
					c-9.4,8.7-17.3,8.8-17.3,8.8c-0.1,1.4-0.7,3.4-0.7,3.4c8.7-0.3,22.3-10.9,22.3-10.9c-6.8,10.1-22.9,13.6-22.9,13.6
					c-0.2,1.9-1.6,4.3-1.6,4.3c6.2-0.3,13.6-2.8,13.6-2.8c-2.1,2.1-9.7,4.5-9.7,4.5v1.4c15.7-3.9,22.1-15.9,22.1-15.9
					s-0.7,2.1,1,7.9c1.6,5.8,9.3,6.6,9.3,6.6c-2.5-1.2-5.4-4.6-6.6-6.1c5.2,6.2,15.5,8.5,15.5,8.5l0.1-1.4
					c-11.1-2.4-16.9-11.4-16.9-11.4c2.1,3.2,9.1,6,11.6,6.9c-7.1-2.7-10.3-11.4-10.3-11.4c5.3,8.8,17.2,11.8,19.3,11.9
					c2.1,0.1,2.9-1.7,2.9-1.7c-8,0-13.3-5.9-13.3-5.9c4,2.3,15.4,2.3,15.4,2.3v-1.3c-5.4-0.9-8.8-3.2-8.8-3.2
					C1705.7,803.3,1710.8,801.7,1710.8,801.7z M1686.9,809.4c-0.3-0.3-0.4-0.5-0.4-0.5C1686.7,809.1,1686.8,809.3,1686.9,809.4z"/>
			</g>
		</g>
		<path class="st65" d="M1697.4,812.2c0.2,0.1,0.5,0.1,0.7,0.3C1697.9,812.4,1697.7,812.4,1697.4,812.2z"/>
		<path class="st65" d="M1698.1,812.5c0.1,0.1,0.2,0.1,0.2,0.1C1698.2,812.5,1698.1,812.5,1698.1,812.5z"/>
		<path class="st65" d="M1686.9,809.4c-0.3-0.3-0.4-0.5-0.4-0.5C1686.7,809.1,1686.8,809.3,1686.9,809.4z"/>
		<path class="st65" d="M1697.4,812.2c0.2,0.1,0.5,0.1,0.7,0.3C1697.9,812.4,1697.7,812.4,1697.4,812.2z"/>
		<path class="st65" d="M1698.1,812.5c0.1,0.1,0.2,0.1,0.2,0.1C1698.2,812.5,1698.1,812.5,1698.1,812.5z"/>
		<path class="st65" d="M1697.4,812.2c0.2,0.1,0.5,0.1,0.7,0.3C1697.9,812.4,1697.7,812.4,1697.4,812.2z"/>
		<path class="st65" d="M1698.1,812.5c0.1,0.1,0.2,0.1,0.2,0.1C1698.2,812.5,1698.1,812.5,1698.1,812.5z"/>
		<path class="st65" d="M1686.9,809.4c-0.3-0.3-0.4-0.5-0.4-0.5C1686.7,809.1,1686.8,809.3,1686.9,809.4z"/>
		<path class="st65" d="M1686.5,722.9c2.2,0.7,6.1,5.4,6.1,5.5c0,0.1-0.4-1.3-1-3.3C1689,723.3,1686.5,722.9,1686.5,722.9
			L1686.5,722.9z"/>
		<path class="st65" d="M1683.5,728.2c-2.1,2.6-4.2,3.6-4.8,3.8c-0.3,1.1-0.9,1.9-0.9,1.9c2.1-1,5.4-5.2,5.4-5.2
			c-2.2,4.7-5.5,7-5.5,7c0.1,0.3,0,0.8-0.1,1.5C1682.3,734.4,1683.5,728.2,1683.5,728.2z"/>
		<path class="st65" d="M1686.3,736.8c0.1,1.1,0.5,2.1,1.1,3c-1.2-5.2-0.7-14.4-1.4-10.6c-0.8,5-7.8,10.1-7.8,10.1v-2.8l-0.5,0.5
			c-0.3,1.7-1.1,4.4-1.1,4.4c7.5-2.8,9.3-11.2,9.3-11.2S1685.7,730.5,1686.3,736.8z"/>
		<path class="st65" d="M1696.9,746.4c-0.7-1.1-1.2-3.6-1.4-4.8c-5-2-5.7-6.6-5.7-6.6c1,1.1,1.2,1.1,1.3,1.1c0-0.1,0-0.1,0-0.1
			c1.3,1.2,3.4,0.9,3.4,0.9v-0.1c-3.4,0.5-8.1-7.1-8.1-7.1l-0.2,1.1l0.6,8.1C1688.9,743.8,1696.9,746.4,1696.9,746.4z"/>
		<path class="st65" d="M1691.9,750.5c0.1,0.1,2.7,3.6,6.4,5.2c0.5,0.1,0.7,0.1,0.7,0.1c-0.8-1.3-1.3-4.2-1.3-4.2
			c-2.3-0.3-4.2-1.3-5.7-2.4h-0.5l1.6,1.6L1691.9,750.5z"/>
		<path class="st65" d="M1701,761.3c-2.8-0.9-4.6-3.5-4.6-3.5c1,0.3,2.3-0.1,2.3-0.1c-1.8-0.5-3.1-1.3-4-2.1c-3.6-2-5.1-4.8-5.1-4.8
			c0.3,1,0.7,1.9,0.7,1.9c-1.2-0.7-2.1-4-2.1-4c0.2,2.9,2.1,5,2.1,5c-2.1-1.3-2.8-4.2-2.8-4.2c0.5,2.4,1.3,4.4,2.2,6.1
			c4.8,3.5,11.4,6.6,11.4,6.6V761.3z"/>
		<path class="st65" d="M1681.3,760.7c0,0-2.8,4.8-6.2,6.2c-3.4,1.4-5,1.2-4.7,0.5s3.6,0.2,6.6-2.6
			C1679.8,762,1681.4,760,1681.3,760.7z"/>
		<g>
			<path class="st65" d="M1677.7,752.7l2.5-2.8l-3.6,1.1c-1.5,0.9-2.6,1.4-2.6,1.4c0.1,2.4-0.2,3.4-0.5,3.8
				C1674.2,755.4,1676.5,753,1677.7,752.7z"/>
			<path class="st65" d="M1673.4,756.1c-0.1,0.1-0.3,0.3-0.3,0.3S1673.3,756.3,1673.4,756.1z"/>
		</g>
		<path class="st65" d="M1677.7,761.4c2.3-3.2,2.5-6.7,2.5-6.7c-3.6,8.8-9.6,7.6-9.6,7.6l-0.5,2.5
			C1673,764.9,1675.8,763,1677.7,761.4z"/>
		<path class="st65" d="M1685.2,743.7c0,0-2.6,3-1.6,2.8c1-0.1,3.1-1.3,2.8-2.1C1686.1,743.6,1685.7,743.1,1685.2,743.7z"/>
		<path class="st65" d="M1689.5,765.2c0.9,2.3,2.5,5.3,2.5,5.3c-3.2-1.7-4.8-5.7-4.8-5.7c0.9,2.6,2.6,5.3,4.1,7.3
			c5.2,4.2,10.9,6.3,11.7,6.4c0.8,0.2,0.7-0.4,0.6-0.7c-6.7-1.6-9.8-7.9-9.8-7.9c3,2.1,8.9,1.1,8.9,1.1
			C1692.8,770.9,1689.5,765.2,1689.5,765.2z"/>
		<path class="st65" d="M1664.6,786.7c0.1,0,0.3,0,0.4,0c11.7-1.7,16.4-13.7,16.4-13.7c-1.1,2-3.3,3.2-5.2,4
			c-4.4,4.2-10.6,6.2-10.6,6.2C1665.4,784.3,1664.6,786.7,1664.6,786.7z"/>
		<path class="st65" d="M1684.4,776.9c0.7,2.9,2,5.7,3.4,7.9c7.1,8.1,19.1,9.1,19.1,9.1c-0.8-1.3-0.5-3-0.5-3
			c-11.6-2.4-15.8-9.7-15.8-9.7c4.6,5.8,16.9,8.8,16.9,8.8c-0.1-0.1-0.1-0.3-0.1-0.4c-8.8-2.6-15-8.3-15-8.3c2.3,1.5,8.5,0,8.5,0
			c-12.5-2.1-15.5-6.6-15.5-6.6c1.9,7.2,7.6,11.4,7.6,11.4C1688.2,783.6,1684.4,776.9,1684.4,776.9z"/>
		<path class="st65" d="M1709.4,799.3c-8.5,0.5-13.4-1.6-15.9-3.1l0,0c0,0,4.1,4.6,10.5,6.8c3-0.1,6.8-1.3,6.8-1.3
			C1709.5,801.2,1709.4,799.3,1709.4,799.3z"/>
		<g>
			<path class="st65" d="M1672.4,807.3c5.2-2.8,9.1-10.9,9.1-10.9l0,0c-2.7,3.9-6.9,6.9-10.9,8.9l0,0l0,0c-6,3.2-11.8,4.4-11.8,4.4
				c-0.2,1.9-1.6,4.3-1.6,4.3c2.2-0.1,4.6-0.5,6.7-0.9c7.9-2.5,13.5-8.3,15.1-10.1C1677.1,805.1,1672.4,807.3,1672.4,807.3z"/>
			<path class="st65" d="M1679.1,803c0.2-0.2,0.3-0.4,0.5-0.5C1679.5,802.5,1679.4,802.7,1679.1,803z"/>
		</g>
		<path class="st65" d="M1685.3,791.9c0,0-0.1,8.9,11,12.3c0,0-5.7-2.3-7.1-5.4c0,0,2.4,2.4,5,2.8
			C1694.2,801.6,1687.7,797.7,1685.3,791.9z"/>
		<path class="st65" d="M1687.3,808.5c0,0,7.4,5.5,14.8,6.1c0,0-10.9,0.5-15.6-4.4c0,0,1.3,1.1,3.2,1.1
			C1689.9,811.3,1688.5,811,1687.3,808.5z"/>
		<path class="st65" d="M1683.4,788.1c0,0-2.4,7.2-9.1,10.7c0,0,5.2-1.6,7.3-4.6c0,0-0.8,1.5-1.5,2.3
			C1680.1,796.4,1683,794.4,1683.4,788.1z"/>
		<path class="st65" d="M1701.6,795.7c-7.3-0.7-11.5-3.5-13.9-6.5c-1.2-0.6-2.3-1.3-3.3-2.1C1684.2,787,1690.4,797.3,1701.6,795.7z"
			/>
		<path class="st65" d="M1683.5,766.5c0,0,3.3,10.2,11.7,11.4c0,0-5.1-1.9-7.8-7.5l0.8,0.7l-2.7-5.2l-0.3,2.6L1683.5,766.5z"/>
	</g>
	<g class="st8">
		<polygon class="st65" points="1173.1,887 1168.6,887 1170.8,788.3 1173.1,788.3 		"/>
		<path class="st65" d="M1172.2,798.2c0,0-1.6,7.9-8.7,10.6c0,0,1.2-4.4,1.1-5.3c0,0,3.1-2.2,5.2-6.6c0,0-3.2,3.9-5.1,4.9
			c0,0,0.9-1.4,0.9-2.9l2.2-2.5l-1.6,1.2l5.9-23.1c0,0,6.4,22.2,6.4,22.1s-5.3-6.4-6.7-5.1c-1.4,1.3,3.7,7.3,7.1,7.6
			c0,0,0.9,3.1,1.4,5.4c0,0-2,0.4-3.2-0.8c0,0,1.2,2.7,4.1,4.4c0,0,0.6,3.9,1.5,5.4c0,0-9.6-3.1-10.1-9
			C1172.2,798.6,1172.2,798.2,1172.2,798.2z"/>
		<path class="st65" d="M1170,865.2c0,0-6.1,11.3-20.9,15v-1.3c0,0,7.1-2.2,9.1-4.2c0,0-7.1,2.4-12.9,2.7c0,0,1.3-2.3,1.5-4.1
			c0,0,15.2-3.4,21.6-12.9c0,0-12.9,10-21.1,10.3c0,0,0.6-1.9,0.6-3.2c0,0,7.6-0.1,16.4-8.3c0,0-4.3,3.5-9.4,5.1
			c0,0,10.3-5.5,14.6-13.2l0.4-7.4c0,0-9,11.6-17.9,10.7l0.1-1.1c0,0,6.6-0.9,8.4-3.7c0,0-4.4,2.4-8.4,2.1c0,0,0.7-2.4,0.8-3.2
			c0,0,9.7-3.1,13.1-9.9l-6.4,4.5l1.1-2.5c0,0,8.2-5.7,9.7-11.2V824c0,0-4.2,10.7-14.2,11.6c0,0,0.4-0.4,0.7-2.5c0,0,8.1-2,10.2-7
			l-0.1-1.1c0,0-4.6,5.8-9.6,5.8l0.5-2.4c0,0,4.4-0.4,6.1-4.2c0,0-2.9,1.9-5.3,2.2l0.4-1.9c0,0,5.8-1.2,6.1-4.3s-4.9,2.6-4.9,2.6
			s0.9-0.4,0.7-3.7c0,0,7.2-3.2,9.7-8.6c0-0.1,0.1-0.1,0.1-0.2h2.4c0,0,3.4,7,10.2,7.9c0,0,0.5,2.7,1.2,4c0,0-3.1-0.3-5.8-2
			c0,0,1.6,2.7,5.4,3.8c0,0-1.2,0.4-2.2,0.1c0,0,1.7,2.4,4.4,3.3v0.8c0,0-11.4-5.2-14.4-9.7c0,0-0.6,2.7,0.8,5.4
			c1.4,2.7,8.4,9.4,14.5,8.7l0.4,1.3c0,0-6.7-0.2-9.1-2.2c0,0,3.9,3.8,9.5,3.9l0.6,3.1c0,0-3.9,0.6-6.3-0.9c0,0,2.3,4.5,6.3,5.3
			c0,0,0.5,0.9-0.5,0.7c-1-0.2-11.2-3.9-16.4-12c0,0,4.9,12.2,19.4,16.4c0,0,0.1,0.7,0.6,1.3c0,0-3.9-0.7-3.4,0.2
			c0.4,0.9,4.4,2.4,4.4,2.4s-0.4,1.1,0,2.6c0,0-11.6-2.8-16-8.3c0,0,3.9,6.9,14.9,9.1c0,0-0.3,1.6,0.4,2.8c0,0-15.4-1.2-21-13.1
			c0,0-0.9,13.1,16,14.7c0,0-4.4,1.4-9.4-0.9c0,0,4.6,4.9,16.8,4.2c0,0,0.1,1.7,1.3,2.2c0,0-4.8,1.5-7.7,1.1c0,0,3.2,2.2,8.3,3.1
			v1.2c0,0-10.8,0-14.6-2.1c0,0,5,5.6,12.6,5.6c0,0-0.8,1.8-2.7,1.6c-1.9-0.1-13.2-3-18.2-11.2c0,0,3.2,8.8,10.5,11.1
			c0,0-9.3-3.1-11.7-6.7c0,0,5.4,8.4,15.9,10.7l-0.1,1.3c0,0-10.5-2.3-15.1-8.6c0,0,3.7,4.9,6.7,6.4c0,0-7.2-0.8-8.8-6.2
			C1169.3,867.2,1170,865.2,1170,865.2z"/>
		<g>
			<g>
				<path class="st65" d="M1183.2,875.7c0.2,0.1,0.4,0.1,0.6,0.2C1183.7,875.8,1183.5,875.8,1183.2,875.7z"/>
				<path class="st65" d="M1183.8,875.9c0.1,0.1,0.2,0.1,0.2,0.1C1183.9,875.9,1183.8,875.9,1183.8,875.9z"/>
				<path class="st65" d="M1195.8,865.7c-1.2-0.5-1.3-2.2-1.3-2.2c-12.1,0.7-16.8-4.2-16.8-4.2c5,2.2,9.4,0.9,9.4,0.9
					c-10.4-1-14.1-6.4-15.4-10.4l0,0c-1.4-2.1-1.8-6.1-1.8-6.1l-0.4,7.4c-4.2,7.7-14.6,13.2-14.6,13.2c5.1-1.6,9.4-5.1,9.4-5.1
					c-8.9,8.2-16.4,8.3-16.4,8.3c-0.1,1.3-0.6,3.2-0.6,3.2c8.2-0.2,21.1-10.3,21.1-10.3c-6.4,9.5-21.6,12.9-21.6,12.9
					c-0.2,1.7-1.5,4.1-1.5,4.1c5.8-0.2,12.9-2.7,12.9-2.7c-2,2-9.1,4.2-9.1,4.2v1.3c14.8-3.7,20.9-15,20.9-15s-0.6,1.9,0.9,7.4
					c1.5,5.5,8.8,6.2,8.8,6.2c-2.4-1.1-5.1-4.4-6.2-5.7c4.9,5.9,14.6,8,14.6,8l0.1-1.3c-10.5-2.3-15.9-10.7-15.9-10.7
					c2,3.1,8.6,5.6,10.9,6.5c-6.7-2.6-9.7-10.7-9.7-10.7c5,8.3,16.2,11.1,18.2,11.2c1.9,0.1,2.7-1.6,2.7-1.6
					c-7.6,0-12.6-5.6-12.6-5.6c3.7,2.1,14.6,2.1,14.6,2.1v-1.2c-5.1-0.9-8.3-3.1-8.3-3.1C1191,867.2,1195.8,865.7,1195.8,865.7z
					 M1173.3,873c-0.2-0.2-0.4-0.4-0.4-0.4C1173,872.7,1173.2,872.8,1173.3,873z"/>
			</g>
		</g>
		<path class="st65" d="M1183.2,875.7c0.2,0.1,0.4,0.1,0.6,0.2C1183.7,875.8,1183.5,875.8,1183.2,875.7z"/>
		<path class="st65" d="M1183.8,875.9c0.1,0.1,0.2,0.1,0.2,0.1C1183.9,875.9,1183.8,875.9,1183.8,875.9z"/>
		<path class="st65" d="M1173.3,873c-0.2-0.2-0.4-0.4-0.4-0.4C1173,872.7,1173.2,872.8,1173.3,873z"/>
		<path class="st65" d="M1183.2,875.7c0.2,0.1,0.4,0.1,0.6,0.2C1183.7,875.8,1183.5,875.8,1183.2,875.7z"/>
		<path class="st65" d="M1183.8,875.9c0.1,0.1,0.2,0.1,0.2,0.1C1183.9,875.9,1183.8,875.9,1183.8,875.9z"/>
		<path class="st65" d="M1183.2,875.7c0.2,0.1,0.4,0.1,0.6,0.2C1183.7,875.8,1183.5,875.8,1183.2,875.7z"/>
		<path class="st65" d="M1183.8,875.9c0.1,0.1,0.2,0.1,0.2,0.1C1183.9,875.9,1183.8,875.9,1183.8,875.9z"/>
		<path class="st65" d="M1173.3,873c-0.2-0.2-0.4-0.4-0.4-0.4C1173,872.7,1173.2,872.8,1173.3,873z"/>
		<path class="st65" d="M1172.8,791.3c2.1,0.7,5.7,5.1,5.7,5.2c0,0.1-0.4-1.2-0.9-3.1C1175.2,791.7,1172.8,791.3,1172.8,791.3
			L1172.8,791.3z"/>
		<path class="st65" d="M1170,796.3c-2,2.5-4,3.4-4.6,3.6c-0.2,1-0.8,1.8-0.8,1.8c1.9-0.9,5.1-4.9,5.1-4.9c-2.1,4.4-5.2,6.6-5.2,6.6
			c0.1,0.2,0,0.7-0.1,1.4C1168.9,802.3,1170,796.3,1170,796.3z"/>
		<path class="st65" d="M1172.7,804.5c0.1,1.1,0.4,2,1,2.8c-1.1-4.9-0.7-13.6-1.3-10c-0.7,4.7-7.4,9.5-7.4,9.5v-2.7l-0.5,0.5
			c-0.3,1.6-1,4.1-1,4.1c7.1-2.6,8.7-10.6,8.7-10.6S1172.2,798.6,1172.7,804.5z"/>
		<path class="st65" d="M1182.7,813.5c-0.6-1.1-1.1-3.4-1.3-4.6c-4.7-1.9-5.4-6.2-5.4-6.2c0.9,1.1,1.1,1,1.2,1c0-0.1,0-0.1,0-0.1
			c1.2,1.1,3.2,0.8,3.2,0.8v-0.1c-3.2,0.5-7.6-6.7-7.6-6.7l-0.2,1l0.6,7.7C1175.1,811.1,1182.7,813.5,1182.7,813.5z"/>
		<path class="st65" d="M1178,817.4c0.1,0.1,2.6,3.4,6.1,4.9c0.4,0.1,0.7,0.1,0.7,0.1c-0.7-1.2-1.2-4-1.2-4
			c-2.1-0.3-3.9-1.2-5.4-2.2h-0.5l1.5,1.5L1178,817.4z"/>
		<path class="st65" d="M1186.5,827.6c-2.7-0.9-4.4-3.3-4.4-3.3c0.9,0.3,2.2-0.1,2.2-0.1c-1.7-0.5-2.9-1.2-3.8-2
			c-3.4-1.9-4.8-4.6-4.8-4.6c0.2,0.9,0.7,1.8,0.7,1.8c-1.1-0.7-2-3.8-2-3.8c0.2,2.7,2,4.7,2,4.7c-1.9-1.2-2.7-4-2.7-4
			c0.5,2.3,1.2,4.2,2.1,5.7c4.5,3.3,10.7,6.2,10.7,6.2V827.6z"/>
		<path class="st65" d="M1168,827.1c0,0-2.7,4.6-5.9,5.9c-3.2,1.3-4.7,1.1-4.4,0.5c0.2-0.6,3.4,0.2,6.2-2.5
			C1166.5,828.3,1168,826.4,1168,827.1z"/>
		<g>
			<path class="st65" d="M1164.6,819.5l2.4-2.6l-3.4,1c-1.4,0.9-2.5,1.3-2.5,1.3c0.1,2.2-0.2,3.2-0.4,3.6
				C1161.3,822,1163.4,819.8,1164.6,819.5z"/>
			<path class="st65" d="M1160.5,822.7c-0.1,0.1-0.2,0.2-0.2,0.2S1160.4,822.9,1160.5,822.7z"/>
		</g>
		<path class="st65" d="M1164.6,827.7c2.2-3,2.4-6.3,2.4-6.3c-3.4,8.3-9.1,7.2-9.1,7.2l-0.5,2.4
			C1160.2,831,1162.8,829.2,1164.6,827.7z"/>
		<path class="st65" d="M1171.6,811c0,0-2.4,2.8-1.5,2.7c0.9-0.1,2.9-1.2,2.7-1.9C1172.5,810.9,1172.2,810.4,1171.6,811z"/>
		<path class="st65" d="M1175.7,831.3c0.9,2.1,2.4,5,2.4,5c-3-1.6-4.6-5.4-4.6-5.4c0.9,2.4,2.5,5,3.9,6.9c4.9,4,10.2,5.9,11,6.1
			c0.7,0.2,0.7-0.4,0.6-0.6c-6.3-1.5-9.2-7.4-9.2-7.4c2.9,1.9,8.4,1,8.4,1C1178.8,836.6,1175.7,831.3,1175.7,831.3z"/>
		<path class="st65" d="M1152.2,851.6c0.1,0,0.2,0,0.4,0c11-1.6,15.4-12.9,15.4-12.9c-1,1.9-3.1,3.1-4.9,3.8c-4.2,4-10,5.9-10,5.9
			C1152.9,849.3,1152.2,851.6,1152.2,851.6z"/>
		<path class="st65" d="M1170.8,842.3c0.6,2.7,1.9,5.4,3.2,7.5c6.7,7.7,18.1,8.6,18.1,8.6c-0.7-1.2-0.4-2.8-0.4-2.8
			c-10.9-2.2-14.9-9.1-14.9-9.1c4.4,5.5,16,8.3,16,8.3c-0.1-0.1-0.1-0.2-0.1-0.4c-8.3-2.4-14.2-7.9-14.2-7.9c2.2,1.4,8,0,8,0
			c-11.8-1.9-14.6-6.2-14.6-6.2c1.8,6.8,7.2,10.7,7.2,10.7C1174.5,848.6,1170.8,842.3,1170.8,842.3z"/>
		<path class="st65" d="M1194.5,863.5c-8,0.4-12.7-1.5-15-2.9l0,0c0,0,3.9,4.3,9.9,6.4c2.8-0.1,6.4-1.2,6.4-1.2
			C1194.6,865.2,1194.5,863.5,1194.5,863.5z"/>
		<g>
			<path class="st65" d="M1159.6,871c4.9-2.6,8.6-10.3,8.6-10.3l0,0c-2.6,3.7-6.5,6.5-10.3,8.4l0,0l0,0c-5.7,3-11.1,4.2-11.1,4.2
				c-0.2,1.7-1.5,4.1-1.5,4.1c2.1-0.1,4.3-0.4,6.3-0.9c7.4-2.4,12.7-7.8,14.2-9.5C1164,868.9,1159.6,871,1159.6,871z"/>
			<path class="st65" d="M1165.9,867c0.2-0.2,0.3-0.4,0.4-0.5C1166.3,866.5,1166.2,866.7,1165.9,867z"/>
		</g>
		<path class="st65" d="M1171.8,856.5c0,0-0.1,8.4,10.4,11.6c0,0-5.4-2.1-6.7-5.1c0,0,2.2,2.2,4.7,2.6
			C1180.1,865.7,1174,861.9,1171.8,856.5z"/>
		<path class="st65" d="M1173.6,872.2c0,0,7,5.2,14,5.7c0,0-10.2,0.5-14.7-4.1c0,0,1.2,1.1,3.1,1.1
			C1176,874.8,1174.8,874.5,1173.6,872.2z"/>
		<path class="st65" d="M1169.9,852.9c0,0-2.3,6.8-8.6,10.1c0,0,4.9-1.5,6.9-4.4c0,0-0.7,1.4-1.4,2.1
			C1166.8,860.7,1169.6,858.9,1169.9,852.9z"/>
		<path class="st65" d="M1187.1,860.1c-6.9-0.7-10.9-3.3-13.1-6.1c-1.1-0.6-2.2-1.2-3.1-2C1170.7,851.9,1176.6,861.6,1187.1,860.1z"
			/>
		<path class="st65" d="M1170,832.5c0,0,3.1,9.6,11,10.7c0,0-4.8-1.7-7.4-7.1l0.7,0.7l-2.6-4.9l-0.2,2.5L1170,832.5z"/>
	</g>
	<g class="st8">
		<polygon class="st65" points="1283.4,868.5 1278.9,868.5 1281.2,769.9 1283.4,769.9 		"/>
		<path class="st65" d="M1282.6,779.7c0,0-1.6,7.9-8.7,10.6c0,0,1.2-4.4,1.1-5.3c0,0,3.1-2.2,5.2-6.6c0,0-3.2,3.9-5.1,4.9
			c0,0,0.9-1.4,0.9-2.9l2.2-2.5l-1.6,1.2l5.9-23.1c0,0,6.4,22.2,6.4,22.1s-5.3-6.4-6.7-5.1c-1.4,1.3,3.7,7.3,7.1,7.6
			c0,0,0.9,3.1,1.4,5.4c0,0-2,0.4-3.2-0.8c0,0,1.2,2.7,4.1,4.4c0,0,0.6,3.9,1.5,5.4c0,0-9.6-3.1-10.1-9
			C1282.5,780.1,1282.6,779.7,1282.6,779.7z"/>
		<path class="st65" d="M1280.3,846.8c0,0-6.1,11.3-20.9,15v-1.3c0,0,7.1-2.2,9.1-4.2c0,0-7.1,2.4-12.9,2.7c0,0,1.3-2.3,1.5-4.1
			c0,0,15.2-3.4,21.6-12.9c0,0-12.9,10-21.1,10.3c0,0,0.6-1.9,0.6-3.2c0,0,7.6-0.1,16.4-8.3c0,0-4.3,3.5-9.4,5.1
			c0,0,10.3-5.5,14.6-13.2l0.4-7.4c0,0-9,11.6-17.9,10.7l0.1-1.1c0,0,6.6-0.9,8.4-3.7c0,0-4.4,2.4-8.4,2.1c0,0,0.7-2.4,0.8-3.2
			c0,0,9.7-3.1,13.1-9.9l-6.4,4.5l1.1-2.5c0,0,8.2-5.7,9.7-11.2v-5.1c0,0-4.2,10.7-14.2,11.6c0,0,0.4-0.4,0.7-2.5c0,0,8.1-2,10.2-7
			l-0.1-1.1c0,0-4.6,5.8-9.6,5.8l0.5-2.4c0,0,4.4-0.4,6.1-4.2c0,0-2.9,1.9-5.3,2.2l0.4-1.9c0,0,5.8-1.2,6.1-4.3s-4.9,2.6-4.9,2.6
			s0.9-0.4,0.7-3.7c0,0,7.2-3.2,9.7-8.6c0-0.1,0.1-0.1,0.1-0.2h2.4c0,0,3.4,7,10.2,7.9c0,0,0.5,2.7,1.2,4c0,0-3.1-0.3-5.8-2
			c0,0,1.6,2.7,5.4,3.8c0,0-1.2,0.4-2.2,0.1c0,0,1.7,2.4,4.4,3.3v0.8c0,0-11.4-5.2-14.4-9.7c0,0-0.6,2.7,0.8,5.4
			c1.4,2.7,8.4,9.4,14.5,8.7l0.4,1.3c0,0-6.7-0.2-9.1-2.2c0,0,3.9,3.8,9.5,3.9l0.6,3.1c0,0-3.9,0.6-6.3-0.9c0,0,2.3,4.5,6.3,5.3
			c0,0,0.5,0.9-0.5,0.7c-1-0.2-11.2-3.9-16.4-12c0,0,4.9,12.2,19.4,16.4c0,0,0.1,0.7,0.6,1.3c0,0-3.9-0.7-3.4,0.2
			c0.4,0.9,4.4,2.4,4.4,2.4s-0.4,1.1,0,2.6c0,0-11.6-2.8-16-8.3c0,0,3.9,6.9,14.9,9.1c0,0-0.3,1.6,0.4,2.8c0,0-15.4-1.2-21-13.1
			c0,0-0.9,13.1,16,14.7c0,0-4.4,1.4-9.4-0.9c0,0,4.6,4.9,16.8,4.2c0,0,0.1,1.7,1.3,2.2c0,0-4.8,1.5-7.7,1.1c0,0,3.2,2.2,8.3,3.1
			v1.2c0,0-10.8,0-14.6-2.1c0,0,5,5.6,12.6,5.6c0,0-0.8,1.8-2.7,1.6c-1.9-0.1-13.2-3-18.2-11.2c0,0,3.2,8.8,10.5,11.1
			c0,0-9.3-3.1-11.7-6.7c0,0,5.4,8.4,15.9,10.7l-0.1,1.3c0,0-10.5-2.3-15.1-8.6c0,0,3.7,4.9,6.7,6.4c0,0-7.2-0.8-8.8-6.2
			C1279.7,848.7,1280.3,846.8,1280.3,846.8z"/>
		<g>
			<g>
				<path class="st65" d="M1293.5,857.2c0.2,0.1,0.4,0.1,0.6,0.2C1294,857.4,1293.8,857.3,1293.5,857.2z"/>
				<path class="st65" d="M1294.1,857.5c0.1,0.1,0.2,0.1,0.2,0.1C1294.2,857.5,1294.2,857.5,1294.1,857.5z"/>
				<path class="st65" d="M1306.1,847.3c-1.2-0.5-1.3-2.2-1.3-2.2c-12.1,0.7-16.8-4.2-16.8-4.2c5,2.2,9.4,0.9,9.4,0.9
					c-10.4-1-14.1-6.4-15.4-10.4l0,0c-1.4-2.1-1.8-6.1-1.8-6.1l-0.4,7.4c-4.2,7.7-14.6,13.2-14.6,13.2c5.1-1.6,9.4-5.1,9.4-5.1
					c-8.9,8.2-16.4,8.3-16.4,8.3c-0.1,1.3-0.6,3.2-0.6,3.2c8.2-0.2,21.1-10.3,21.1-10.3c-6.4,9.5-21.6,12.9-21.6,12.9
					c-0.2,1.7-1.5,4.1-1.5,4.1c5.8-0.2,12.9-2.7,12.9-2.7c-2,2-9.1,4.2-9.1,4.2v1.3c14.8-3.7,20.9-15,20.9-15s-0.6,1.9,0.9,7.4
					c1.5,5.5,8.8,6.2,8.8,6.2c-2.4-1.1-5.1-4.4-6.2-5.7c4.9,5.9,14.6,8,14.6,8l0.1-1.3c-10.5-2.3-15.9-10.7-15.9-10.7
					c2,3.1,8.6,5.6,10.9,6.5c-6.7-2.6-9.7-10.7-9.7-10.7c5,8.3,16.2,11.1,18.2,11.2s2.7-1.6,2.7-1.6c-7.6,0-12.6-5.6-12.6-5.6
					c3.7,2.1,14.6,2.1,14.6,2.1v-1.2c-5.1-0.9-8.3-3.1-8.3-3.1C1301.3,848.8,1306.1,847.3,1306.1,847.3z M1283.6,854.5
					c-0.2-0.2-0.4-0.4-0.4-0.4C1283.4,854.3,1283.5,854.4,1283.6,854.5z"/>
			</g>
		</g>
		<path class="st65" d="M1293.5,857.2c0.2,0.1,0.4,0.1,0.6,0.2C1294,857.4,1293.8,857.3,1293.5,857.2z"/>
		<path class="st65" d="M1294.1,857.5c0.1,0.1,0.2,0.1,0.2,0.1C1294.2,857.5,1294.2,857.5,1294.1,857.5z"/>
		<path class="st65" d="M1283.6,854.5c-0.2-0.2-0.4-0.4-0.4-0.4C1283.4,854.3,1283.5,854.4,1283.6,854.5z"/>
		<path class="st65" d="M1293.5,857.2c0.2,0.1,0.4,0.1,0.6,0.2C1294,857.4,1293.8,857.3,1293.5,857.2z"/>
		<path class="st65" d="M1294.1,857.5c0.1,0.1,0.2,0.1,0.2,0.1C1294.2,857.5,1294.2,857.5,1294.1,857.5z"/>
		<path class="st65" d="M1293.5,857.2c0.2,0.1,0.4,0.1,0.6,0.2C1294,857.4,1293.8,857.3,1293.5,857.2z"/>
		<path class="st65" d="M1294.1,857.5c0.1,0.1,0.2,0.1,0.2,0.1C1294.2,857.5,1294.2,857.5,1294.1,857.5z"/>
		<path class="st65" d="M1283.6,854.5c-0.2-0.2-0.4-0.4-0.4-0.4C1283.4,854.3,1283.5,854.4,1283.6,854.5z"/>
		<path class="st65" d="M1283.2,772.9c2.1,0.7,5.7,5.1,5.7,5.2c0,0.1-0.4-1.2-0.9-3.1C1285.6,773.3,1283.2,772.9,1283.2,772.9
			L1283.2,772.9z"/>
		<path class="st65" d="M1280.4,777.9c-2,2.5-4,3.4-4.6,3.6c-0.2,1-0.8,1.8-0.8,1.8c1.9-0.9,5.1-4.9,5.1-4.9
			c-2.1,4.4-5.2,6.6-5.2,6.6c0.1,0.2,0,0.7-0.1,1.4C1279.3,783.8,1280.4,777.9,1280.4,777.9z"/>
		<path class="st65" d="M1283,786.1c0.1,1.1,0.4,2,1,2.8c-1.1-4.9-0.7-13.6-1.3-10c-0.7,4.7-7.4,9.5-7.4,9.5v-2.7l-0.5,0.5
			c-0.3,1.6-1,4.1-1,4.1c7.1-2.6,8.7-10.6,8.7-10.6S1282.5,780.1,1283,786.1z"/>
		<path class="st65" d="M1293.1,795.1c-0.6-1.1-1.1-3.4-1.3-4.6c-4.7-1.9-5.4-6.2-5.4-6.2c0.9,1.1,1.1,1,1.2,1c0-0.1,0-0.1,0-0.1
			c1.2,1.1,3.2,0.8,3.2,0.8V786c-3.2,0.5-7.6-6.7-7.6-6.7l-0.2,1l0.6,7.7C1285.4,792.6,1293.1,795.1,1293.1,795.1z"/>
		<path class="st65" d="M1288.3,798.9c0.1,0.1,2.6,3.4,6.1,4.9c0.4,0.1,0.7,0.1,0.7,0.1c-0.7-1.2-1.2-4-1.2-4
			c-2.1-0.3-3.9-1.2-5.4-2.2h-0.5l1.5,1.5L1288.3,798.9z"/>
		<path class="st65" d="M1296.9,809.1c-2.7-0.9-4.4-3.3-4.4-3.3c0.9,0.3,2.2-0.1,2.2-0.1c-1.7-0.5-2.9-1.2-3.8-2
			c-3.4-1.9-4.8-4.6-4.8-4.6c0.2,0.9,0.7,1.8,0.7,1.8c-1.1-0.7-2-3.8-2-3.8c0.2,2.7,2,4.7,2,4.7c-1.9-1.2-2.7-4-2.7-4
			c0.5,2.3,1.2,4.2,2.1,5.7c4.5,3.3,10.7,6.2,10.7,6.2V809.1z"/>
		<path class="st65" d="M1278.3,808.6c0,0-2.7,4.6-5.9,5.9c-3.2,1.3-4.7,1.1-4.4,0.5c0.2-0.6,3.4,0.2,6.2-2.5
			C1276.9,809.9,1278.4,807.9,1278.3,808.6z"/>
		<g>
			<path class="st65" d="M1274.9,801l2.4-2.6l-3.4,1c-1.4,0.9-2.5,1.3-2.5,1.3c0.1,2.2-0.2,3.2-0.4,3.6
				C1271.6,803.5,1273.8,801.4,1274.9,801z"/>
			<path class="st65" d="M1270.9,804.2c-0.1,0.1-0.2,0.2-0.2,0.2S1270.8,804.4,1270.9,804.2z"/>
		</g>
		<path class="st65" d="M1274.9,809.2c2.2-3,2.4-6.3,2.4-6.3c-3.4,8.3-9.1,7.2-9.1,7.2l-0.5,2.4
			C1270.5,812.5,1273.1,810.8,1274.9,809.2z"/>
		<path class="st65" d="M1281.9,792.6c0,0-2.4,2.8-1.5,2.7c0.9-0.1,2.9-1.2,2.7-1.9C1282.8,792.5,1282.5,792,1281.9,792.6z"/>
		<path class="st65" d="M1286,812.9c0.9,2.1,2.4,5,2.4,5c-3-1.6-4.6-5.4-4.6-5.4c0.9,2.4,2.5,5,3.9,6.9c4.9,4,10.2,5.9,11,6.1
			c0.7,0.2,0.7-0.4,0.6-0.6c-6.3-1.5-9.2-7.4-9.2-7.4c2.9,1.9,8.4,1,8.4,1C1289.1,818.2,1286,812.9,1286,812.9z"/>
		<path class="st65" d="M1262.5,833.2c0.1,0,0.2,0,0.4,0c11-1.6,15.4-12.9,15.4-12.9c-1,1.9-3.1,3.1-4.9,3.8c-4.2,4-10,5.9-10,5.9
			C1263.3,830.8,1262.5,833.2,1262.5,833.2z"/>
		<path class="st65" d="M1281.2,823.8c0.6,2.7,1.9,5.4,3.2,7.5c6.7,7.7,18.1,8.6,18.1,8.6c-0.7-1.2-0.4-2.8-0.4-2.8
			c-10.9-2.2-14.9-9.1-14.9-9.1c4.4,5.5,16,8.3,16,8.3c-0.1-0.1-0.1-0.2-0.1-0.4c-8.3-2.4-14.2-7.9-14.2-7.9c2.2,1.4,8,0,8,0
			c-11.8-1.9-14.6-6.2-14.6-6.2c1.8,6.8,7.2,10.7,7.2,10.7C1284.8,830.2,1281.2,823.8,1281.2,823.8z"/>
		<path class="st65" d="M1304.8,845c-8,0.4-12.7-1.5-15-2.9l0,0c0,0,3.9,4.3,9.9,6.4c2.8-0.1,6.4-1.2,6.4-1.2
			C1304.9,846.8,1304.8,845,1304.8,845z"/>
		<g>
			<path class="st65" d="M1269.9,852.6c4.9-2.6,8.6-10.3,8.6-10.3l0,0c-2.6,3.7-6.5,6.5-10.3,8.4l0,0l0,0c-5.7,3-11.1,4.2-11.1,4.2
				c-0.2,1.7-1.5,4.1-1.5,4.1c2.1-0.1,4.3-0.4,6.3-0.9c7.4-2.4,12.7-7.8,14.2-9.5C1274.3,850.5,1269.9,852.6,1269.9,852.6z"/>
			<path class="st65" d="M1276.2,848.5c0.2-0.2,0.3-0.4,0.4-0.5C1276.6,848,1276.5,848.2,1276.2,848.5z"/>
		</g>
		<path class="st65" d="M1282.1,838c0,0-0.1,8.4,10.4,11.6c0,0-5.4-2.1-6.7-5.1c0,0,2.2,2.2,4.7,2.6
			C1290.4,847.2,1284.3,843.5,1282.1,838z"/>
		<path class="st65" d="M1283.9,853.7c0,0,7,5.2,14,5.7c0,0-10.2,0.5-14.7-4.1c0,0,1.2,1.1,3.1,1.1
			C1286.4,856.3,1285.1,856,1283.9,853.7z"/>
		<path class="st65" d="M1280.3,834.4c0,0-2.3,6.8-8.6,10.1c0,0,4.9-1.5,6.9-4.4c0,0-0.7,1.4-1.4,2.1
			C1277.2,842.3,1279.9,840.4,1280.3,834.4z"/>
		<path class="st65" d="M1297.4,841.7c-6.9-0.7-10.9-3.3-13.1-6.1c-1.1-0.6-2.2-1.2-3.1-2C1281.1,833.4,1286.9,843.2,1297.4,841.7z"
			/>
		<path class="st65" d="M1280.4,814c0,0,3.1,9.6,11,10.7c0,0-4.8-1.7-7.4-7.1l0.7,0.7l-2.6-4.9l-0.2,2.5L1280.4,814z"/>
	</g>
	<polygon style="clip-path:url(#SVGID_2_);fill:#FFFFFF;" points="907.5,336.8 914,331.6 908.9,338.2 914,344.8 907.5,339.6 
		900.9,344.8 906,338.2 900.9,331.6 	"/>
	<polygon style="clip-path:url(#SVGID_2_);fill:#FFFFFF;" points="717.1,169.6 723.6,164.5 718.5,171 723.6,177.6 717.1,172.5 
		710.5,177.6 715.6,171 710.5,164.5 	"/>
	<polygon style="clip-path:url(#SVGID_2_);fill:#FFFFFF;" points="214.5,276.8 221,271.6 215.9,278.2 221,284.8 214.5,279.6 
		207.9,284.8 213,278.2 207.9,271.6 	"/>
	<polygon style="clip-path:url(#SVGID_2_);fill:#FFFFFF;" points="390.5,371.8 397,366.6 391.9,373.2 397,379.8 390.5,374.6 
		383.9,379.8 389,373.2 383.9,366.6 	"/>
	<polygon style="clip-path:url(#SVGID_2_);fill:#FFFFFF;" points="541.5,372.8 548,367.6 542.9,374.2 548,380.8 541.5,375.6 
		534.9,380.8 540,374.2 534.9,367.6 	"/>
	<polygon style="clip-path:url(#SVGID_2_);fill:#FFFFFF;" points="375.5,143.8 382,138.6 376.9,145.2 382,151.8 375.5,146.6 
		368.9,151.8 374,145.2 368.9,138.6 	"/>
	<polygon style="clip-path:url(#SVGID_2_);fill:#FFFFFF;" points="1338.5,196.8 1345,191.6 1339.9,198.2 1345,204.8 1338.5,199.6 
		1331.9,204.8 1337,198.2 1331.9,191.6 	"/>
	<polygon style="clip-path:url(#SVGID_2_);fill:#FFFFFF;" points="1186.5,349.8 1193,344.6 1187.9,351.2 1193,357.8 1186.5,352.6 
		1179.9,357.8 1185,351.2 1179.9,344.6 	"/>
	<polygon style="clip-path:url(#SVGID_2_);fill:#FFFFFF;" points="1729.5,175.8 1736,170.6 1730.9,177.2 1736,183.8 1729.5,178.6 
		1722.9,183.8 1728,177.2 1722.9,170.6 	"/>
	<polygon style="clip-path:url(#SVGID_2_);fill:#FFFFFF;" points="1552,61.3 1558.6,56.2 1553.5,62.8 1558.6,69.3 1552,64.2 
		1545.5,69.3 1550.6,62.8 1545.5,56.2 	"/>
	<polygon style="clip-path:url(#SVGID_2_);fill:#FFFFFF;" points="1569.5,284.8 1576,279.6 1570.9,286.2 1576,292.8 1569.5,287.6 
		1562.9,292.8 1568,286.2 1562.9,279.6 	"/>
	<polygon style="clip-path:url(#SVGID_2_);fill:#FFFFFF;" points="1672.5,488.8 1679,483.6 1673.9,490.2 1679,496.8 1672.5,491.6 
		1665.9,496.8 1671,490.2 1665.9,483.6 	"/>
	<polygon style="clip-path:url(#SVGID_2_);fill:#FFFFFF;" points="1256.5,556.8 1263,551.6 1257.9,558.2 1263,564.8 1256.5,559.6 
		1249.9,564.8 1255,558.2 1249.9,551.6 	"/>
	<polygon style="clip-path:url(#SVGID_2_);fill:#FFFFFF;" points="1778.5,356.8 1785,351.6 1779.9,358.2 1785,364.8 1778.5,359.6 
		1771.9,364.8 1777,358.2 1771.9,351.6 	"/>
	<polygon style="clip-path:url(#SVGID_2_);fill:#FFFFFF;" points="1446.5,377.8 1453,372.6 1447.9,379.2 1453,385.8 1446.5,380.6 
		1439.9,385.8 1445,379.2 1439.9,372.6 	"/>
	<polygon style="clip-path:url(#SVGID_2_);fill:#FFFFFF;" points="65.3,52.9 71.9,47.8 66.7,54.3 71.9,60.9 65.3,55.8 58.8,60.9 
		63.9,54.3 58.8,47.8 	"/>
	<polygon style="clip-path:url(#SVGID_2_);fill:#FFFFFF;" points="608.6,33.3 615.1,28.1 610,34.7 615.1,41.3 608.6,36.1 602,41.3 
		607.1,34.7 602,28.1 	"/>
	<polygon style="clip-path:url(#SVGID_2_);fill:#FFFFFF;" points="55.1,545.1 61.7,540 56.5,546.6 61.7,553.1 55.1,548 48.5,553.1 
		53.7,546.6 48.5,540 	"/>
	<path style="clip-path:url(#SVGID_2_);fill:#9EB9D4;" d="M598.3,813.6c0,0-835.3-5.7-454.7,310.7h193.9c0,0-114-87-125.4-163.9
		c-11.4-77,367.9-133.4,450.5-140.1L598.3,813.6z"/>
	<path style="clip-path:url(#SVGID_2_);fill:#4D557C;" d="M723.3,998.3c0,0,809.1-174.3,1276.3,159.1l21.2-204.7
		c0,0-546.6-138.3-1072.8-26.3C948,926.5,829.5,944.4,723.3,998.3z"/>
</g>
</svg>
